<?xml version="1.0" standalone="no"?>
<!DOCTYPE svg PUBLIC "-//W3C//DTD SVG 20010904//EN"
 "http://www.w3.org/TR/2001/REC-SVG-20010904/DTD/svg10.dtd">
<svg version="1.0" xmlns="http://www.w3.org/2000/svg"
 width="473.000000pt" height="266.000000pt" viewBox="0 0 473.000000 266.000000"
 preserveAspectRatio="xMidYMid meet">

<g transform="translate(0.000000,266.000000) scale(0.100000,-0.100000)"
fill="#000000" stroke="none">
<path d="M95 2650 c4 -6 11 -8 16 -5 14 9 11 15 -7 15 -8 0 -12 -5 -9 -10z"/>
<path d="M334 2632 c2 -15 5 -29 6 -32 1 -3 1 -15 0 -27 -2 -24 14 -31 26 -12
3 6 15 8 25 6 12 -3 32 5 50 20 l30 26 55 -19 c30 -10 54 -21 54 -25 0 -20
-14 -39 -29 -39 -22 0 -81 -37 -81 -51 0 -5 8 -8 18 -5 28 9 49 -40 27 -64 -8
-9 -15 -22 -15 -28 0 -16 -53 -42 -85 -42 -15 0 -35 -4 -45 -10 -10 -5 -34
-12 -52 -15 -18 -3 -55 -11 -81 -18 -54 -15 -179 -6 -203 14 -8 6 -14 26 -14
45 0 18 -4 36 -10 39 -7 4 -10 -397 -10 -1194 l0 -1201 1158 1 c778 1 1146 4
1123 11 -19 5 -54 26 -77 47 -23 20 -59 46 -81 56 -21 11 -49 30 -61 42 l-24
22 34 9 33 9 -50 7 c-27 5 -53 12 -56 18 -4 5 -23 10 -43 10 -21 0 -47 8 -63
21 l-27 21 25 6 c13 4 26 3 29 -1 3 -5 28 -2 55 7 28 8 61 12 75 8 14 -3 62
-6 108 -7 79 0 113 -12 98 -35 -3 -5 6 -15 19 -22 28 -15 31 -27 10 -54 -8
-11 -15 -32 -15 -46 0 -25 6 -29 77 -50 42 -13 108 -36 146 -51 67 -28 76 -29
233 -29 93 0 164 4 164 9 0 5 -17 27 -38 49 -43 44 -49 82 -17 106 11 9 14 16
8 16 -7 0 -13 7 -13 16 0 13 -7 15 -42 9 -63 -11 -79 -22 -45 -30 15 -4 26
-10 23 -12 -3 -3 -21 0 -40 7 -20 6 -46 10 -58 8 -22 -3 -22 -4 7 -20 38 -22
32 -22 -36 -2 -53 15 -86 34 -61 34 16 0 15 49 -1 55 -8 4 -11 26 -10 74 3 88
-5 95 -139 127 -131 30 -141 30 -191 -5 -23 -15 -54 -35 -68 -44 -31 -19 -47
-65 -27 -79 8 -6 -16 -7 -60 -3 -46 5 -77 3 -85 -4 -19 -15 -83 -17 -100 -3
-8 7 -19 12 -23 11 -5 -1 -22 -1 -39 0 -44 2 -17 22 39 28 30 3 46 1 46 -7 0
-15 52 -8 58 8 3 9 -7 13 -30 13 -18 0 -55 1 -83 3 -27 2 -63 4 -78 4 -16 1
-26 6 -23 11 3 4 -7 6 -22 4 -21 -4 -24 -2 -12 6 8 6 29 11 45 11 23 0 27 3
15 10 -8 6 -36 9 -63 8 -28 -1 -52 3 -60 11 -10 11 4 12 78 6 100 -9 237 -8
333 1 51 5 62 9 62 24 0 10 9 20 20 23 20 5 29 27 11 27 -5 0 -12 11 -15 25
-14 56 -183 54 -381 -4 -57 -17 -157 -17 -403 -2 -7 1 -10 6 -6 12 4 8 26 9
64 5 43 -5 60 -3 69 7 6 8 28 17 49 21 20 3 51 14 67 23 25 14 63 17 240 19
116 1 278 -1 360 -6 246 -14 489 -20 481 -13 -3 4 -84 10 -179 14 -162 7 -413
23 -592 38 l-80 7 88 8 c48 5 156 5 240 0 217 -12 838 -8 846 5 7 11 52 8 346
-24 161 -17 214 -35 105 -35 -36 0 -72 -4 -79 -9 -10 -6 26 -9 97 -7 62 2 115
-1 118 -5 3 -5 -14 -9 -38 -10 -24 -1 -62 -2 -85 -3 -24 0 -43 2 -43 7 0 4 -7
7 -15 7 -8 0 -15 -7 -15 -15 0 -10 -15 -15 -52 -18 -29 -2 8 -2 82 0 74 3 137
6 140 6 11 3 99 -26 98 -32 -2 -21 5 -29 33 -35 33 -6 31 -25 -4 -27 -32 -2
50 -27 91 -28 17 -1 32 -6 32 -12 0 -5 5 -7 10 -4 6 3 10 1 10 -5 0 -8 -18
-10 -52 -8 -42 2 -53 0 -53 -12 0 -8 5 -14 12 -13 6 2 26 -3 43 -11 29 -12 30
-14 14 -27 -11 -9 -45 -15 -93 -16 -136 -3 -324 -21 -401 -38 -100 -22 -200
-30 -200 -16 0 20 -36 12 -37 -8 -1 -13 7 -20 28 -25 67 -13 3 -46 -89 -46
-31 0 -52 -3 -49 -7 4 -3 0 -14 -8 -23 -29 -32 10 -89 50 -73 9 3 24 -2 33
-11 10 -8 38 -23 62 -31 25 -9 60 -25 78 -35 32 -19 56 -20 788 -20 l754 0 0
1330 0 1330 -2200 0 -2201 0 5 -28z m1211 -18 c17 -14 39 -33 50 -43 68 -54
182 -241 190 -311 4 -30 17 -60 26 -60 6 0 8 -4 4 -9 -3 -6 3 -9 14 -8 16 1
18 4 9 22 -6 11 -16 23 -22 27 -8 6 -7 8 1 8 7 0 16 -6 20 -14 8 -14 11 -16
36 -16 8 0 7 -4 -3 -10 -12 -8 -10 -10 8 -10 13 0 21 4 18 9 -3 4 4 17 16 27
15 13 19 14 14 4 -4 -9 -2 -8 7 3 8 9 26 17 40 17 14 0 33 8 43 17 9 10 28 16
41 15 12 -2 23 1 23 7 0 13 93 -14 98 -29 2 -5 8 -8 13 -4 14 8 48 -37 49 -63
0 -13 5 -23 11 -23 5 0 7 -4 4 -10 -3 -5 -16 -10 -29 -10 -12 0 -33 -11 -46
-25 -19 -20 -20 -25 -7 -25 8 0 23 -7 32 -16 19 -19 47 -11 39 11 -12 30 96
14 117 -18 12 -18 29 4 29 39 0 22 4 33 11 29 13 -9 82 62 74 75 -3 5 10 31
29 56 20 26 36 52 36 58 0 6 4 5 9 -3 16 -26 29 -3 20 36 -12 53 -12 53 21 53
25 0 30 -4 30 -25 0 -28 15 -34 24 -9 4 10 13 13 26 9 12 -4 27 -2 35 5 15 12
31 -3 20 -20 -3 -5 3 -10 14 -10 11 0 21 -7 23 -16 3 -13 5 -13 23 1 14 11 16
18 8 21 -24 10 4 42 32 37 28 -6 32 -18 11 -30 -19 -10 -25 -37 -8 -38 20 0
19 -17 -3 -29 -35 -20 -42 -31 -34 -51 4 -11 8 -17 8 -13 1 5 49 -21 107 -57
59 -36 110 -65 115 -65 10 0 30 70 23 81 -2 4 5 10 16 14 24 7 26 21 5 29 -17
6 -9 36 10 36 7 0 18 -7 25 -15 7 -8 20 -15 30 -15 10 0 23 7 30 15 7 8 22 15
35 15 21 0 24 5 28 55 2 30 17 33 24 4 3 -11 11 -18 19 -15 14 5 29 -28 20
-42 -3 -5 1 -17 8 -28 12 -15 16 -16 30 -5 13 11 17 11 22 -2 3 -8 15 -18 27
-21 16 -4 31 5 63 39 23 25 48 45 56 45 32 0 85 30 96 54 15 33 35 33 53 0 13
-25 12 -28 -19 -55 -17 -16 -32 -38 -32 -49 0 -21 -66 -89 -87 -90 -7 0 -13
-3 -13 -8 0 -4 -16 -16 -35 -26 -19 -11 -35 -25 -35 -32 0 -17 -37 -83 -61
-110 -10 -11 -19 -25 -19 -32 0 -6 -9 -16 -20 -22 -11 -6 -20 -14 -20 -19 0
-12 65 -81 96 -102 33 -22 69 -25 61 -6 -16 44 -17 54 -2 54 8 0 15 -4 15 -8
0 -4 9 -11 20 -14 11 -3 20 -15 20 -25 0 -13 -5 -17 -15 -14 -9 4 -19 -4 -27
-21 -12 -26 -9 -30 45 -82 31 -30 57 -59 57 -64 0 -5 6 -9 13 -9 6 0 3 -6 -8
-12 -17 -10 -23 -6 -50 28 -71 91 -331 334 -357 334 -7 0 -7 -4 0 -12 5 -7 13
-28 17 -46 6 -28 2 -38 -26 -70 -18 -20 -42 -42 -53 -48 -12 -6 -43 -24 -71
-41 -67 -41 -89 -47 -105 -28 -7 8 -22 15 -35 15 -12 0 -30 9 -40 20 -10 11
-30 20 -44 20 -15 0 -34 -9 -44 -20 -9 -11 -24 -20 -32 -20 -19 0 -19 -14 1
-31 14 -11 14 -13 0 -21 -9 -5 -16 -16 -16 -23 0 -22 -23 -18 -38 6 -9 14 -19
18 -32 14 -14 -4 -20 -2 -20 9 0 26 21 29 45 6 34 -32 41 -8 15 48 -12 25 -24
57 -27 71 -6 35 -41 81 -61 81 -10 0 -28 -8 -42 -17 -17 -12 -25 -13 -28 -5
-6 19 -15 15 -58 -23 -39 -35 -64 -44 -64 -25 0 10 -8 5 -43 -26 -7 -6 -26
-15 -42 -21 -17 -6 -29 -16 -28 -22 2 -6 -2 -11 -7 -11 -6 0 -10 -7 -10 -15 0
-23 17 -18 24 7 5 22 6 22 23 5 10 -9 18 -27 18 -38 0 -12 9 -27 20 -33 32
-18 40 -30 40 -56 0 -17 6 -26 20 -28 11 -2 27 -6 35 -9 8 -3 18 -6 22 -5 4 1
5 -5 2 -12 -4 -11 0 -13 15 -9 21 5 26 -3 15 -31 -3 -9 -11 -13 -18 -9 -16 11
-30 10 -37 0 -11 -16 -30 4 -24 24 10 30 -20 33 -48 5 -32 -32 -42 -63 -27
-81 14 -16 6 -18 -25 -6 -12 5 -28 3 -41 -6 -18 -11 -25 -11 -50 2 -39 20 -51
19 -64 -6 -15 -27 -5 -37 20 -21 16 10 20 10 20 -2 0 -35 -51 -43 -132 -20
-16 5 -17 39 -2 53 4 3 4 -2 1 -12 -4 -11 -3 -16 3 -12 6 3 10 12 10 20 0 7 5
15 12 17 23 8 0 37 -25 32 -14 -2 -30 2 -37 11 -11 13 -14 13 -26 -2 -12 -17
-14 -17 -30 -1 -35 35 -2 53 56 30 23 -9 90 -9 90 0 0 4 -4 8 -10 8 -19 0 -10
18 11 23 18 5 20 10 14 34 -4 15 -8 35 -9 43 -2 18 -14 22 -40 14 -12 -4 -22
0 -28 10 -5 9 -18 16 -29 16 -12 0 -19 5 -16 13 2 6 -3 17 -11 23 -18 13 -55
6 -45 -9 3 -6 1 -7 -6 -3 -6 4 -19 2 -28 -6 -14 -11 -16 -11 -11 3 4 10 1 16
-8 16 -8 0 -14 -9 -14 -19 0 -10 -3 -18 -6 -18 -12 0 -42 45 -36 55 4 5 7 15
8 20 0 6 2 16 2 23 1 6 11 12 22 12 24 0 25 6 6 25 -21 22 -96 -2 -109 -35 -4
-10 -6 -9 -6 6 -1 12 -8 27 -16 34 -13 11 -18 10 -30 -6 -8 -10 -15 -23 -15
-27 0 -5 -4 -5 -10 -2 -5 3 -10 2 -10 -3 0 -10 -50 -69 -122 -144 -21 -22 -38
-47 -38 -56 0 -28 -38 -81 -72 -102 -48 -29 -54 -24 -14 10 19 17 39 44 44 60
10 26 8 30 -16 39 -31 12 -72 45 -72 59 0 5 -9 17 -21 28 -12 10 -27 31 -35
45 -12 25 -12 27 9 34 12 3 17 9 10 11 -19 8 -87 -14 -111 -36 -12 -12 -22
-17 -22 -12 0 5 11 19 25 32 14 13 25 26 25 30 0 3 -14 20 -30 37 -34 35 -33
38 28 48 32 5 42 11 42 26 0 16 4 17 26 9 24 -10 26 -9 21 11 -4 15 0 23 14
26 10 3 17 9 14 13 -3 5 -1 11 4 15 6 3 8 11 5 18 -6 15 31 57 51 57 7 0 29
14 47 30 18 17 37 30 43 30 5 1 21 10 34 20 19 17 23 27 18 55 -5 28 -2 35 14
40 24 8 41 38 33 59 -4 9 -1 16 6 16 18 0 3 85 -26 141 -12 26 -40 64 -61 85
-62 63 -87 94 -77 94 5 0 23 -12 39 -26z m2021 8 c9 -6 27 -52 20 -52 -2 0
-17 7 -34 15 -20 10 -29 21 -25 30 6 16 22 19 39 7z m690 -40 c6 -4 14 -20 18
-37 10 -38 25 -57 40 -48 10 6 -10 -21 -41 -55 -15 -16 -17 -26 -3 -17 5 3 18
-14 29 -37 13 -28 30 -48 49 -56 17 -7 41 -23 55 -36 14 -13 32 -26 39 -29 11
-5 11 -7 0 -15 -8 -5 -13 -13 -12 -18 1 -5 -31 -18 -70 -29 -48 -13 -81 -30
-100 -49 -25 -24 -34 -27 -64 -22 -18 4 -39 13 -46 21 -7 8 -22 15 -34 15 -26
0 -41 10 -48 31 -4 9 -23 24 -44 34 -34 16 -38 16 -49 2 -16 -22 -35 -3 -35
35 0 15 -7 31 -16 36 -15 8 -15 13 -2 53 8 24 19 44 24 44 5 0 34 19 64 43 65
50 65 49 91 85 12 16 27 26 34 23 7 -2 21 1 31 9 31 21 73 29 90 17z m-926
-12 c0 -5 -5 -10 -11 -10 -5 0 -7 5 -4 10 3 6 8 10 11 10 2 0 4 -4 4 -10z
m370 -10 c-24 -15 -36 -11 -14 4 10 8 21 12 24 10 2 -3 -2 -9 -10 -14z m-650
-70 c0 -8 -9 -10 -27 -5 -34 8 -32 5 -26 36 l5 26 24 -22 c13 -12 24 -28 24
-35z m-950 0 c0 -5 -5 -10 -11 -10 -5 0 -7 5 -4 10 3 6 8 10 11 10 2 0 4 -4 4
-10z m955 -50 c3 -5 2 -10 -4 -10 -5 0 -13 5 -16 10 -3 6 -2 10 4 10 5 0 13
-4 16 -10z m-2410 -68 c4 -15 12 -30 18 -34 7 -5 2 -8 -14 -8 -14 0 -30 -5
-35 -10 -17 -17 -46 23 -39 53 11 44 59 43 70 -1z m2308 -4 c54 -38 87 -71 87
-87 0 -12 -5 -10 -18 7 -14 18 -30 24 -63 26 -34 2 -43 6 -41 19 1 8 -2 18 -7
22 -9 5 -4 35 5 35 3 0 19 -10 37 -22z m-83 -18 c0 -5 -2 -10 -4 -10 -3 0 -8
5 -11 10 -3 6 -1 10 4 10 6 0 11 -4 11 -10z m-490 -10 c0 -5 -4 -10 -10 -10
-5 0 -10 5 -10 10 0 6 5 10 10 10 6 0 10 -4 10 -10z m1010 -75 c0 -8 -4 -15
-10 -15 -5 0 -7 7 -4 15 4 8 8 15 10 15 2 0 4 -7 4 -15z m-1490 -30 c0 -8 -7
-15 -15 -15 -8 0 -15 7 -15 15 0 8 7 15 15 15 8 0 15 -7 15 -15z m2580 -5 c0
-5 -7 -7 -15 -4 -8 4 -15 8 -15 10 0 2 7 4 15 4 8 0 15 -4 15 -10z m-400 -160
c-13 -8 -12 -10 3 -10 9 0 17 -5 17 -11 0 -5 -4 -7 -10 -4 -5 3 -10 1 -10 -5
0 -7 6 -10 14 -7 14 6 25 1 110 -47 32 -18 57 -25 72 -22 13 3 26 1 29 -5 4
-6 13 -8 21 -5 9 3 14 -2 14 -14 0 -11 5 -20 10 -20 6 0 10 -7 10 -16 0 -12
-5 -14 -17 -9 -30 13 -103 13 -103 1 0 -7 -3 -6 -8 2 -6 9 -25 11 -68 6 -32
-3 -72 -6 -89 -6 -16 -1 -35 -7 -43 -14 -9 -9 -38 -14 -87 -14 -54 0 -78 -4
-89 -16 -18 -17 -21 -34 -7 -34 13 0 23 -32 14 -41 -5 -5 -28 -11 -52 -14 -24
-3 -48 -8 -53 -11 -12 -7 -39 16 -32 27 3 5 13 9 24 9 10 0 21 7 24 16 4 12 1
14 -14 9 -11 -3 -29 0 -40 8 -17 12 -18 16 -7 26 8 6 16 8 19 6 10 -10 56 17
61 35 2 10 17 21 33 24 17 4 38 20 50 39 13 20 47 45 88 65 57 29 69 32 83 20
15 -11 16 -10 10 11 -7 30 11 57 27 41 8 -8 7 -13 -4 -20z m-640 -120 c0 -13
-7 -20 -18 -20 -24 0 -32 8 -25 26 8 22 43 17 43 -6z m80 -30 c0 -5 -2 -10 -4
-10 -3 0 -8 5 -11 10 -3 6 -1 10 4 10 6 0 11 -4 11 -10z m-240 -90 c0 -12 -10
-25 -24 -31 -14 -7 -22 -17 -20 -23 6 -15 -37 -16 -53 0 -6 6 -23 9 -37 7 -30
-6 -34 7 -8 29 12 11 33 14 75 12 46 -3 57 -1 57 11 0 8 2 15 5 15 3 0 5 -9 5
-20z m1175 -38 c-20 -81 -20 -80 18 -87 24 -5 34 -11 31 -20 -3 -7 3 -15 13
-17 14 -2 10 -7 -17 -21 -40 -19 -70 -41 -70 -50 0 -4 7 -4 16 0 9 3 20 0 25
-8 8 -12 12 -11 24 5 8 11 15 26 15 33 0 7 4 13 9 13 11 0 3 -39 -12 -57 -6
-9 -3 -15 13 -21 21 -8 21 -9 -14 -40 -20 -18 -45 -32 -56 -32 -11 0 -24 -9
-30 -20 -8 -15 -17 -18 -43 -14 -83 14 -117 16 -117 4 0 -14 -25 -40 -38 -40
-6 0 -13 6 -16 13 -3 9 -9 7 -19 -5 -22 -28 -33 -21 -32 20 0 27 4 39 14 38
21 -1 25 23 5 31 -12 4 -23 -2 -36 -20 -24 -34 -42 -34 -70 -2 -12 14 -27 25
-34 25 -7 0 -16 9 -19 21 -5 15 -10 18 -20 9 -10 -8 -19 -8 -36 1 -21 11 -21
12 -4 21 24 14 91 4 111 -16 34 -35 55 -39 75 -17 11 12 26 21 34 21 8 0 19 9
25 20 6 12 22 25 36 30 26 10 34 54 12 63 -8 4 -7 6 4 6 21 1 43 61 26 72 -8
5 -1 14 22 26 18 10 42 26 52 36 11 10 25 16 32 14 7 -3 19 -1 26 3 8 5 22 4
33 -2 14 -7 17 -16 12 -36z m-1085 -62 c0 -5 -4 -10 -10 -10 -5 0 -10 5 -10
10 0 6 5 10 10 10 6 0 10 -4 10 -10z m-923 -22 c-3 -8 -6 -5 -6 6 -1 11 2 17
5 13 3 -3 4 -12 1 -19z m-427 -3 c0 -2 -6 -5 -13 -8 -8 -3 -14 1 -14 8 0 7 6
11 14 8 7 -3 13 -6 13 -8z m1290 5 c0 -5 -4 -10 -10 -10 -5 0 -10 5 -10 10 0
6 5 10 10 10 6 0 10 -4 10 -10z m-1918 -66 c5 -22 16 -32 40 -39 36 -11 48
-30 21 -34 -81 -11 -136 9 -153 55 -23 60 -23 72 2 76 35 6 81 -23 90 -58z
m1382 16 c1 -22 -3 -40 -8 -40 -4 0 -5 -8 -1 -17 4 -10 9 -24 12 -30 3 -7 -2
-13 -11 -13 -10 0 -16 9 -16 24 0 15 -7 27 -19 31 -17 5 -18 9 -8 35 6 17 19
33 29 36 11 3 15 11 12 17 -4 7 -4 9 1 5 4 -4 8 -26 9 -48z m-309 10 c3 -5 -1
-10 -9 -10 -9 0 -16 5 -16 10 0 6 4 10 9 10 6 0 13 -4 16 -10z m1385 0 c0 -5
-4 -10 -10 -10 -5 0 -10 5 -10 10 0 6 5 10 10 10 6 0 10 -4 10 -10z m-1910
-82 c0 -23 -3 -29 -11 -21 -6 6 -8 20 -4 32 9 30 15 26 15 -11z m960 23 c0 -5
-7 -11 -15 -15 -9 -3 -15 0 -15 9 0 8 7 15 15 15 8 0 15 -4 15 -9z m35 -1 c3
-5 -1 -10 -9 -10 -9 0 -16 5 -16 10 0 6 4 10 9 10 6 0 13 -4 16 -10z m-965
-10 c0 -5 -4 -10 -10 -10 -5 0 -10 5 -10 10 0 6 5 10 10 10 6 0 10 -4 10 -10z
m-724 -27 c18 -29 40 -51 71 -69 14 -9 10 -10 -22 -5 -22 4 -56 3 -75 -2 -45
-12 -218 -3 -233 12 -6 6 -24 11 -39 11 -15 0 -28 4 -28 8 0 5 24 7 53 4 28
-2 84 1 122 7 39 6 79 13 90 15 11 1 21 8 21 14 1 7 2 17 3 22 2 18 18 10 37
-17z m1711 11 c-3 -3 -12 -4 -19 -1 -8 3 -5 6 6 6 11 1 17 -2 13 -5z m118 -30
c20 -20 34 -38 31 -41 -12 -12 -72 10 -89 32 -16 22 -16 25 -2 25 9 0 13 5 10
10 -15 24 17 7 50 -26z m-432 -21 c5 -26 2 -37 -15 -53 -11 -10 -25 -17 -30
-14 -4 3 -8 0 -8 -7 0 -7 -3 -10 -6 -7 -3 4 -1 15 5 27 8 13 8 22 1 26 -15 9
-2 25 15 18 11 -4 13 -1 9 11 -8 21 4 52 15 40 5 -5 11 -24 14 -41z m-713 -33
c0 -24 -13 -37 -31 -33 -15 4 -18 2 -13 -11 3 -9 1 -16 -4 -16 -16 0 -24 18
-12 25 6 4 15 18 20 31 6 15 15 22 25 18 8 -3 15 -10 15 -14z m791 -106 c9
-18 14 -35 12 -38 -6 -5 -34 24 -49 50 -10 16 -9 20 5 21 9 1 23 -14 32 -33z
m-181 -20 c0 -8 -5 -12 -10 -9 -6 4 -8 11 -5 16 9 14 15 11 15 -7z m-1677
-189 c-85 -34 -185 -87 -215 -113 -17 -14 -38 -9 -38 9 0 10 30 25 200 95 58
24 112 44 120 43 8 0 -22 -15 -67 -34z m2584 -46 c104 -39 176 -106 238 -223
17 -32 29 -42 56 -47 20 -4 0 -6 -51 -6 -47 0 -68 2 -47 4 27 3 37 9 37 21 0
19 -43 87 -75 118 -30 30 -116 88 -151 103 -45 18 -146 19 -152 1 -9 -27 -50
-55 -107 -75 -32 -10 -81 -35 -109 -55 -58 -40 -97 -59 -142 -70 l-31 -7 11
35 c26 86 170 197 286 222 64 13 170 4 237 -21z m-1467 -109 c0 -5 -5 -10 -11
-10 -5 0 -7 5 -4 10 3 6 8 10 11 10 2 0 4 -4 4 -10z m-1200 -40 c0 -5 -10 -10
-22 -10 -19 0 -20 2 -8 10 19 13 30 13 30 0z m1904 -120 c264 0 477 -3 474 -6
-17 -17 -798 -37 -1173 -30 -347 6 -609 16 -603 22 2 2 170 6 373 10 204 4
372 9 375 11 3 3 21 2 40 -1 19 -3 251 -6 514 -6z m544 -7 c-10 -2 -26 -2 -35
0 -10 3 -2 5 17 5 19 0 27 -2 18 -5z m-1871 -9 c-3 -3 -12 -4 -19 -1 -8 3 -5
6 6 6 11 1 17 -2 13 -5z m533 -34 c0 -5 -4 -10 -10 -10 -5 0 -10 5 -10 10 0 6
5 10 10 10 6 0 10 -4 10 -10z m775 -55 c28 -4 52 -8 54 -10 2 -2 -84 -2 -190
0 -107 2 -177 1 -156 -1 20 -3 35 -9 33 -13 -3 -4 45 -9 107 -10 62 -1 146 -4
187 -6 41 -2 111 -4 154 -4 50 -1 76 -5 70 -10 -11 -12 -990 -16 -1089 -5 -76
9 -79 7 55 32 30 6 109 14 175 17 66 4 156 11 200 15 93 9 327 6 400 -5z m359
0 c44 -9 81 -17 83 -19 9 -9 -76 -10 -124 -3 -39 6 -50 12 -46 23 3 8 6 14 7
14 0 0 37 -7 80 -15z m119 -55 c20 0 37 -4 37 -10 0 -11 -120 -14 -157 -4 -45
12 -24 27 30 20 28 -3 69 -6 90 -6z m597 -99 c0 -8 -79 -3 -89 5 -2 2 17 4 42
4 26 0 47 -4 47 -9z m-2330 -21 c0 -13 -50 -13 -70 0 -11 7 -4 10 28 10 23 0
42 -4 42 -10z m2263 -27 c-7 -2 -19 -2 -25 0 -7 3 -2 5 12 5 14 0 19 -2 13 -5z
m-2009 -68 c-21 -16 -44 -19 -71 -7 -13 5 -6 9 27 13 25 3 49 7 54 7 6 1 1 -5
-10 -13z m165 -21 c2 -2 -31 -4 -75 -4 -49 0 -74 4 -65 9 12 8 130 3 140 -5z
m-183 -25 c3 -5 -1 -9 -8 -9 -7 0 -24 -3 -38 -6 -22 -5 -23 -4 -7 6 9 6 15 15
12 20 -3 4 4 6 15 3 11 -3 23 -9 26 -14z m2324 -60 c25 -6 16 -7 -30 -3 -36 3
-69 10 -74 15 -10 9 43 3 104 -12z m-2257 -46 c-7 -2 -19 -2 -25 0 -7 3 -2 5
12 5 14 0 19 -2 13 -5z m12 -23 c4 -6 -11 -10 -39 -10 -25 0 -48 5 -51 10 -4
6 11 10 39 10 25 0 48 -4 51 -10z m470 0 c-3 -5 -13 -10 -21 -10 -8 0 -14 5
-14 10 0 6 9 10 21 10 11 0 17 -4 14 -10z m-440 -45 c-16 -8 -43 -14 -60 -13
-24 0 -20 3 20 13 65 17 77 17 40 0z m-226 -9 c-2 -2 -22 -6 -44 -9 -28 -5
-34 -4 -20 3 19 8 73 14 64 6z m-155 -51 c-10 -8 -32 -14 -49 -14 l-30 1 35
13 c49 19 69 19 44 0z m-99 -25 c-11 -5 -33 -9 -50 -9 -23 -1 -26 2 -15 9 8 5
31 9 50 9 29 0 31 -2 15 -9z m-92 -7 c-7 -2 -21 -2 -30 0 -10 3 -4 5 12 5 17
0 24 -2 18 -5z"/>
<path d="M2595 2301 c-22 -11 -32 -20 -23 -20 10 -1 22 -10 28 -21 6 -11 15
-20 21 -20 6 0 7 5 4 11 -4 6 1 17 11 24 18 14 18 14 -1 15 -18 1 -17 2 5 15
37 21 2 18 -45 -4z"/>
<path d="M3502 2288 c-19 -19 -14 -28 14 -28 18 0 25 5 22 17 -4 21 -21 26
-36 11z"/>
<path d="M2650 2240 c0 -5 7 -10 16 -10 8 0 12 5 9 10 -3 6 -10 10 -16 10 -5
0 -9 -4 -9 -10z"/>
<path d="M2784 2213 c0 -16 11 -36 24 -46 27 -23 29 -47 2 -47 -17 0 -19 -4
-14 -27 4 -16 8 -31 10 -34 5 -8 56 -19 110 -23 23 -1 54 -13 72 -26 29 -22
34 -22 71 -10 22 7 49 10 60 7 12 -3 21 -2 21 1 0 9 -64 52 -77 52 -6 0 -13 7
-16 15 -8 19 -227 165 -248 165 -12 0 -16 -8 -15 -27z"/>
<path d="M2710 2220 c0 -5 5 -10 11 -10 5 0 7 5 4 10 -3 6 -8 10 -11 10 -2 0
-4 -4 -4 -10z"/>
<path d="M1982 2080 c14 -22 24 -19 15 5 -4 8 -11 15 -17 15 -6 0 -6 -7 2 -20z"/>
<path d="M2066 2082 c-7 -12 17 -38 41 -44 28 -8 37 5 23 32 -10 20 -54 28
-64 12z"/>
<path d="M3220 2070 c0 -11 -11 -25 -25 -32 -13 -7 -21 -18 -17 -23 12 -17 90
-75 101 -75 16 0 13 26 -4 40 -9 8 -13 21 -9 35 4 16 0 27 -13 35 -16 10 -16
11 6 6 l23 -5 -20 20 c-27 24 -42 24 -42 -1z"/>
<path d="M3105 2070 c3 -5 8 -10 11 -10 2 0 4 5 4 10 0 6 -5 10 -11 10 -5 0
-7 -4 -4 -10z"/>
<path d="M2746 2028 c-9 -12 -16 -28 -16 -34 0 -6 -19 -17 -43 -23 -51 -12
-59 -38 -13 -38 17 0 41 -3 54 -7 18 -6 22 -4 22 13 0 11 9 25 21 31 15 9 19
19 17 42 -4 39 -21 46 -42 16z"/>
<path d="M2807 2013 c-12 -12 -7 -22 8 -17 8 4 15 10 15 15 0 11 -14 12 -23 2z"/>
<path d="M1932 1830 c0 -14 2 -19 5 -12 2 6 2 18 0 25 -3 6 -5 1 -5 -13z"/>
<path d="M2760 1836 c0 -9 7 -12 21 -9 16 4 17 8 7 14 -19 13 -28 11 -28 -5z"/>
<path d="M2200 1760 c0 -5 5 -10 11 -10 5 0 7 5 4 10 -3 6 -8 10 -11 10 -2 0
-4 -4 -4 -10z"/>
<path d="M2286 1632 c-3 -6 -1 -14 5 -17 15 -10 25 3 12 16 -7 7 -13 7 -17 1z"/>
<path d="M266 2627 c-16 -12 -16 -14 -2 -26 22 -18 46 -7 39 18 -6 24 -13 26
-37 8z"/>
<path d="M3264 628 c-3 -4 -2 -9 3 -9 67 -9 74 -9 60 6 -15 14 -55 17 -63 3z"/>
<path d="M3313 593 c9 -2 23 -2 30 0 6 3 -1 5 -18 5 -16 0 -22 -2 -12 -5z"/>
<path d="M2255 490 l-40 -7 37 -2 c20 0 40 4 43 9 3 6 5 9 3 9 -2 -1 -21 -5
-43 -9z"/>
<path d="M3497 462 c-15 -2 -38 -9 -52 -16 l-25 -13 23 -20 c28 -26 81 -35
131 -23 30 6 47 5 68 -6 16 -8 26 -19 23 -24 -4 -6 -1 -10 4 -10 6 0 11 5 11
10 0 15 17 12 35 -6 26 -26 28 -9 2 19 -30 33 -71 49 -99 38 -13 -4 -34 -4
-48 0 -21 6 -22 7 -5 8 l20 2 -20 11 c-11 6 -24 17 -30 23 -5 6 -22 9 -38 7z"/>
<path d="M3650 460 c-12 -8 -11 -10 8 -10 12 0 22 5 22 10 0 13 -11 13 -30 0z"/>
<path d="M1952 391 c-10 -6 -4 -10 18 -15 35 -6 54 0 45 15 -8 11 -45 12 -63
0z"/>
<path d="M3269 379 c-10 -6 -7 -9 14 -9 29 0 35 5 14 13 -8 3 -20 1 -28 -4z"/>
<path d="M3150 311 c0 -6 4 -12 8 -15 13 -8 52 5 46 15 -7 12 -54 12 -54 0z"/>
<path d="M2130 270 c0 -5 5 -10 11 -10 5 0 7 5 4 10 -3 6 -8 10 -11 10 -2 0
-4 -4 -4 -10z"/>
<path d="M2805 250 c-41 -7 -29 -13 35 -15 19 0 41 5 48 12 11 11 8 13 -15 12
-15 -1 -46 -5 -68 -9z"/>
</g>
</svg>
