<?xml version="1.0" standalone="no"?>
<!DOCTYPE svg PUBLIC "-//W3C//DTD SVG 20010904//EN"
 "http://www.w3.org/TR/2001/REC-SVG-20010904/DTD/svg10.dtd">
<svg version="1.0" xmlns="http://www.w3.org/2000/svg"
 width="473.000000pt" height="266.000000pt" viewBox="0 0 473.000000 266.000000"
 preserveAspectRatio="xMidYMid meet">

<g transform="translate(0.000000,266.000000) scale(0.100000,-0.100000)"
fill="#000000" stroke="none">
<path d="M0 1330 l0 -1330 2365 0 2365 0 0 1330 0 1330 -2365 0 -2365 0 0
-1330z m2970 558 c0 -34 3 -38 26 -38 24 0 25 2 13 18 -13 16 -13 16 6 2 11
-8 24 -21 28 -28 5 -7 18 -10 31 -6 13 3 27 1 31 -5 3 -6 11 -8 17 -5 7 4 8 2
4 -4 -4 -7 0 -12 10 -12 16 0 15 -2 -2 -21 -14 -16 -15 -23 -6 -26 18 -7 15
-31 -7 -43 -14 -7 -21 -6 -25 3 -3 7 -7 3 -12 -11 -5 -19 -9 -20 -22 -10 -12
10 -16 10 -19 0 -3 -6 -9 -9 -14 -6 -7 4 -7 -8 -3 -33 5 -21 8 -48 7 -60 0
-14 5 -23 13 -23 12 0 14 11 9 48 -4 39 -3 44 8 31 6 -9 23 -19 36 -24 18 -5
20 -9 10 -15 -9 -6 -6 -10 13 -15 24 -6 25 -8 15 -47 -7 -27 -12 -36 -18 -26
-7 10 -9 9 -9 -5 0 -10 -5 -15 -10 -12 -6 4 -8 16 -5 28 5 19 4 19 -9 -3 -22
-35 -20 -39 15 -35 21 3 29 0 26 -8 -2 -7 -9 -12 -15 -12 -19 0 -25 -14 -13
-29 9 -11 8 -15 -5 -20 -13 -5 -14 -9 -4 -21 7 -8 19 -15 26 -15 17 0 19 -30
2 -30 -8 -1 -6 -6 5 -14 21 -16 22 -27 2 -20 -15 6 -19 -4 -15 -40 1 -13 -3
-17 -13 -13 -8 3 -21 -3 -30 -14 -14 -16 -14 -23 -3 -49 7 -17 16 -27 20 -23
4 4 4 0 1 -8 -3 -8 -2 -26 3 -40 6 -14 5 -30 0 -39 -13 -21 7 -70 29 -70 17
-1 17 -2 -1 -15 -10 -8 -22 -12 -26 -10 -4 3 -10 -10 -13 -28 -3 -22 2 -41 15
-59 16 -24 17 -28 4 -28 -20 0 -21 -19 -1 -26 22 -9 19 -45 -5 -51 -19 -5 -38
-48 -27 -60 7 -7 -19 -34 -30 -32 -4 1 -21 -3 -38 -10 -23 -10 -26 -14 -15
-21 13 -8 13 -10 1 -10 -8 0 -23 -8 -33 -17 -17 -15 -20 -15 -28 -3 -9 13 -14
9 -7 -5 1 -3 -13 -14 -31 -25 -21 -13 -30 -25 -26 -33 5 -8 2 -7 -9 2 -9 7
-17 10 -17 6 0 -4 -7 -1 -17 6 -9 8 -24 13 -35 11 -11 -2 -18 3 -18 12 0 9 7
16 15 16 8 0 15 7 15 17 0 15 -1 15 -18 0 -24 -22 -36 -22 -28 -1 5 14 4 15
-7 5 -12 -9 -14 -7 -13 11 1 23 -5 25 -36 13 -11 -5 -18 -2 -18 5 0 6 10 14
21 17 20 6 20 7 -7 18 -19 8 -33 9 -41 2 -7 -5 -13 -6 -13 -2 0 11 34 70 43
73 4 2 4 9 0 15 -4 6 0 8 10 4 23 -9 21 2 -3 28 l-20 22 20 18 c22 20 27 41 8
29 -8 -5 -8 -1 2 12 22 29 24 30 17 12 -7 -20 3 -24 20 -7 9 9 8 15 -3 27 -19
18 -10 29 11 12 8 -7 15 -9 15 -4 0 5 4 3 9 -5 7 -11 10 -10 15 6 4 11 19 32
34 46 15 14 33 33 40 41 7 9 24 16 38 16 16 0 23 4 18 11 -3 6 -17 9 -31 6
-15 -3 -28 2 -36 12 -19 25 -41 26 -34 1 3 -11 1 -18 -4 -14 -5 3 -9 18 -9 35
0 18 -5 29 -14 29 -8 0 -17 14 -21 30 -4 17 -11 30 -16 30 -6 0 -5 8 1 20 10
19 9 20 -14 14 -19 -4 -26 -1 -31 15 -6 21 -25 29 -25 11 0 -5 5 -10 11 -10 5
0 7 -5 3 -11 -5 -8 -9 -8 -14 1 -4 7 -12 10 -18 6 -6 -3 -17 1 -26 9 -18 19
-76 28 -76 13 0 -6 -9 0 -21 13 -12 13 -25 23 -30 21 -5 -1 -9 2 -9 7 0 6 -12
16 -27 23 -15 7 -25 17 -23 21 3 5 -3 13 -12 18 -22 12 -23 55 -3 76 15 14 11
38 -5 28 -17 -11 -21 61 -5 99 7 15 5 18 -7 13 -14 -5 -15 -1 -7 25 4 17 6 35
3 40 -6 10 35 47 54 48 6 0 12 7 12 15 0 18 16 20 23 3 4 -8 6 -7 6 4 1 15 54
42 64 31 3 -2 8 5 12 18 6 17 9 19 16 8 7 -11 11 -11 17 -2 10 16 54 13 48 -4
-6 -15 10 -18 19 -3 4 6 11 8 16 4 5 -3 7 -10 4 -15 -4 -5 -1 -9 5 -9 7 0 4
-7 -5 -16 -14 -15 -14 -17 0 -28 14 -10 14 -15 3 -36 -8 -17 -20 -24 -32 -22
-11 3 -16 0 -12 -7 4 -6 2 -11 -4 -11 -6 0 -8 -5 -5 -10 4 -6 11 -8 16 -5 5 4
9 2 9 -3 0 -13 33 -10 42 3 5 6 8 5 8 -2 0 -7 11 -13 24 -13 14 0 30 -10 39
-24 12 -18 22 -22 43 -18 25 4 26 3 22 -25 -3 -22 1 -34 14 -42 26 -16 22 -40
-7 -47 -15 -4 -25 -13 -24 -23 0 -10 3 -11 6 -4 3 10 10 9 27 -2 36 -24 71 -1
72 48 2 39 -9 48 -24 21 -6 -11 -12 -13 -16 -6 -6 11 31 38 47 34 4 -1 7 2 7
8 0 5 8 10 18 10 9 0 13 4 7 8 -11 8 -11 39 0 66 4 10 4 21 -2 25 -12 8 -27
43 -24 59 1 6 -5 12 -13 12 -8 0 -19 14 -25 30 -6 18 -6 28 -1 25 6 -4 10 -13
10 -21 0 -8 5 -12 10 -9 6 3 10 15 10 25 0 10 6 21 13 23 9 4 9 8 -2 15 -7 5
-11 14 -7 20 3 5 -4 20 -15 33 l-21 24 21 3 c15 3 21 11 21 30 0 21 2 24 10
12 5 -8 10 -32 10 -52z m-180 -22 c0 -3 -4 -8 -10 -11 -5 -3 -10 -1 -10 4 0 6
5 11 10 11 6 0 10 -2 10 -4z m10 -72 c0 -8 -5 -14 -11 -14 -5 0 -7 5 -4 10 3
6 1 10 -4 10 -6 0 -11 4 -11 10 0 5 7 7 15 4 8 -4 15 -12 15 -20z m-40 12 c0
-2 -8 -10 -17 -17 -16 -13 -17 -12 -4 4 13 16 21 21 21 13z m190 -166 c0 -11
-2 -20 -4 -20 -2 0 -6 9 -9 20 -3 11 -1 20 4 20 5 0 9 -9 9 -20z m307 -7 c4
-9 1 -19 -5 -21 -9 -3 -9 -9 -2 -23 8 -14 7 -19 -1 -19 -6 0 -9 -7 -6 -14 8
-20 -30 -31 -48 -16 -8 7 -15 20 -15 30 0 10 -7 23 -15 30 -13 11 -13 14 1 27
8 8 20 13 28 10 7 -3 19 -1 27 4 21 13 29 11 36 -8z m-992 -13 c3 -5 1 -10 -4
-10 -6 0 -11 5 -11 10 0 6 2 10 4 10 3 0 8 -4 11 -10z m685 -29 c0 -12 -2 -13
-9 -3 -4 7 -12 12 -17 11 -17 -3 -25 1 -20 10 9 15 46 0 46 -18z m1130 19 c-8
-5 -22 -9 -30 -9 -10 0 -8 3 5 9 27 12 43 12 25 0z m-1775 -10 c3 -5 12 -7 20
-3 8 3 15 1 15 -5 0 -15 -32 -24 -40 -12 -4 6 -14 8 -23 4 -9 -3 -17 -2 -17 4
0 9 15 19 32 21 4 1 9 -3 13 -9z m58 -32 c-8 -12 -9 -19 -5 -55 1 -7 9 -13 17
-13 19 0 20 -16 1 -23 -8 -3 -22 3 -31 13 -9 10 -23 16 -31 13 -9 -3 -14 2
-14 17 0 15 4 20 15 16 8 -3 14 -2 12 2 -3 9 25 41 37 42 5 0 4 -6 -1 -12z
m1627 8 c0 -3 -4 -8 -10 -11 -5 -3 -10 -1 -10 4 0 6 5 11 10 11 6 0 10 -2 10
-4z m-2134 -47 c8 -14 -10 -11 -32 6 -18 13 -18 14 4 8 12 -3 25 -9 28 -14z
m-566 3 c0 -4 -4 -13 -9 -21 -8 -12 -12 -12 -25 -2 -22 19 -20 26 9 29 14 1
25 -2 25 -6z m991 -22 c6 0 7 -10 4 -22 -9 -30 -26 -47 -18 -19 4 17 2 20 -11
15 -11 -4 -16 -1 -16 10 0 9 6 16 13 17 8 0 8 2 -2 6 -11 5 -11 7 0 14 9 6 15
3 17 -6 2 -8 8 -15 13 -15z m885 5 c-14 -14 -16 -14 -16 -2 0 9 6 17 13 20 19
7 21 -1 3 -18z m734 -45 c0 -5 -2 -10 -4 -10 -3 0 -8 5 -11 10 -3 6 -1 10 4
10 6 0 11 -4 11 -10z m-1000 -16 c0 -11 -5 -14 -16 -10 -9 3 -18 6 -20 6 -3 0
-2 5 1 10 10 16 35 12 35 -6z m-595 -24 c-10 -11 -22 -17 -27 -14 -5 3 1 14
13 25 28 24 38 16 14 -11z m-951 14 c9 -3 16 -10 16 -14 0 -15 -49 -40 -66
-33 -15 6 -15 7 4 14 12 5 22 15 22 24 0 17 2 18 24 9z m2556 -28 c0 -28 -10
-38 -28 -27 -15 9 -4 51 14 51 8 0 14 -10 14 -24z m-1544 -21 c2 -21 -1 -24
-12 -14 -11 9 -11 15 -3 25 15 18 14 18 15 -11z m-2259 -2 c11 -10 18 -24 16
-30 -5 -15 -52 -17 -73 -3 -13 9 -12 13 9 30 28 24 24 24 48 3z m120 -8 c-21
-15 -22 -31 -2 -39 8 -3 15 -9 14 -13 -3 -21 4 -30 35 -47 28 -15 37 -16 57
-5 41 22 51 36 29 42 -11 3 -20 10 -20 15 0 7 11 6 30 -1 35 -13 38 -26 10
-50 -21 -18 -26 -37 -10 -37 19 0 10 -18 -12 -23 -18 -5 -19 -9 -9 -21 17 -20
4 -38 -20 -31 -21 7 -25 -5 -7 -23 7 -7 8 -12 2 -12 -17 0 -44 39 -33 46 8 4
7 9 -2 15 -8 4 -19 3 -26 -3 -9 -7 -13 -7 -13 1 0 6 -4 11 -10 11 -5 0 -10
-12 -10 -26 0 -15 -4 -23 -11 -19 -6 4 -8 14 -4 22 3 9 3 24 -1 35 -6 19 -6
19 -21 1 -13 -16 -14 -17 -9 0 3 10 0 17 -9 17 -7 0 -17 5 -21 11 -4 7 6 10
32 7 46 -4 53 11 29 68 -12 29 -18 35 -27 26 -17 -17 -31 -15 -24 3 3 8 1 15
-4 15 -6 0 -10 -5 -10 -12 0 -6 -3 -9 -6 -6 -12 12 17 49 34 44 9 -3 24 -1 32
4 21 13 36 -1 17 -15z m3698 -65 c-3 -5 -1 -11 5 -15 6 -4 8 -10 5 -15 -10
-16 27 -20 42 -4 20 20 38 4 38 -34 0 -23 -5 -27 -29 -29 -15 -1 -34 -7 -41
-13 -8 -6 -19 -10 -27 -9 -7 2 -23 -1 -36 -5 -16 -5 -31 -2 -48 9 -25 16 -25
17 -7 32 16 13 16 14 1 9 -24 -7 -30 8 -17 38 12 26 46 38 36 12 -4 -9 0 -12
12 -9 21 5 25 42 5 50 -22 8 -17 25 6 18 11 -4 20 -2 20 4 0 6 9 2 20 -9 12
-12 18 -25 15 -30z m-763 -12 c-7 -7 -12 -8 -12 -2 0 14 12 26 19 19 2 -3 -1
-11 -7 -17z m-35 -10 c-3 -8 -6 -5 -6 6 -1 11 2 17 5 13 3 -3 4 -12 1 -19z
m-2937 2 c0 -5 -7 -10 -16 -10 -8 0 -12 5 -9 10 3 6 10 10 16 10 5 0 9 -4 9
-10z m1430 -20 c0 -5 -2 -10 -4 -10 -3 0 -8 5 -11 10 -3 6 -1 10 4 10 6 0 11
-4 11 -10z m2446 -1 c3 -6 2 -15 -2 -19 -12 -12 -38 5 -30 19 9 14 23 14 32 0z
m-3506 -29 c0 -5 -4 -10 -10 -10 -5 0 -10 5 -10 10 0 6 5 10 10 10 6 0 10 -4
10 -10z m1320 -4 c0 -3 -4 -8 -10 -11 -5 -3 -10 -1 -10 4 0 6 5 11 10 11 6 0
10 -2 10 -4z m-1455 -26 c3 -5 1 -10 -4 -10 -6 0 -11 5 -11 10 0 6 2 10 4 10
3 0 8 -4 11 -10z m2305 -4 c0 -3 -4 -8 -10 -11 -5 -3 -10 -1 -10 4 0 6 5 11
10 11 6 0 10 -2 10 -4z m-1499 -32 c12 -14 11 -16 -5 -13 -11 2 -21 10 -24 17
-5 17 13 15 29 -4z m1396 -65 c-3 -23 -11 -47 -17 -53 -9 -8 -10 -5 -5 14 7
22 6 23 -9 11 -15 -12 -15 -11 -6 10 6 13 13 32 16 42 12 34 27 17 21 -24z
m1167 26 c3 -8 1 -15 -5 -15 -6 0 -8 -4 -4 -10 3 -5 13 -7 23 -4 15 5 15 4 -1
-6 -14 -9 -22 -9 -34 2 -15 12 -15 11 -5 -8 10 -18 9 -21 -6 -20 -9 0 -20 9
-24 19 -4 9 -14 17 -23 17 -8 0 -15 5 -15 11 0 6 9 8 20 4 13 -4 22 -1 26 9 8
20 40 21 48 1z m-3634 -5 c0 -5 -4 -10 -9 -10 -6 0 -13 5 -16 10 -3 6 1 10 9
10 9 0 16 -4 16 -10z m1885 0 c3 -5 1 -10 -4 -10 -6 0 -11 5 -11 10 0 6 2 10
4 10 3 0 8 -4 11 -10z m-909 -62 c-7 -5 -7 -8 2 -8 7 0 10 -4 7 -10 -3 -5 0
-10 7 -10 7 -1 2 -7 -12 -15 -22 -12 -26 -11 -33 1 -5 9 -5 23 -1 32 4 9 6 26
5 37 l-3 20 20 -20 c13 -14 16 -22 8 -27z m3065 -8 c26 0 58 -25 46 -36 -3 -3
-2 -17 4 -30 7 -21 5 -26 -14 -33 -13 -5 -25 -5 -28 1 -4 6 -16 7 -27 4 -24
-8 -39 11 -23 27 15 15 14 28 -1 25 -7 -2 -12 5 -11 15 2 49 3 51 15 39 7 -7
24 -12 39 -12z m-3121 0 c0 -5 -2 -10 -4 -10 -3 0 -8 5 -11 10 -3 6 -1 10 4
10 6 0 11 -4 11 -10z m1490 0 c0 -5 -5 -10 -11 -10 -5 0 -7 5 -4 10 3 6 8 10
11 10 2 0 4 -4 4 -10z m125 0 c3 -5 1 -10 -4 -10 -6 0 -11 5 -11 10 0 6 2 10
4 10 3 0 8 -4 11 -10z m30 0 c3 -5 1 -10 -4 -10 -6 0 -11 5 -11 10 0 6 2 10 4
10 3 0 8 -4 11 -10z m-1478 -40 c5 0 8 -13 5 -29 -3 -20 -9 -28 -18 -24 -10 4
-11 10 -3 24 12 23 6 24 -26 3 -23 -15 -23 -14 -18 8 11 51 12 52 31 34 10 -9
23 -16 29 -16z m2043 -254 c0 -2 -11 -11 -25 -20 -28 -19 -33 -15 -9 8 14 15
34 22 34 12z m-150 -50 c0 -3 -4 -8 -10 -11 -5 -3 -10 -1 -10 4 0 6 5 11 10
11 6 0 10 -2 10 -4z m-2099 -349 c-13 -13 -26 -3 -16 12 3 6 11 8 17 5 6 -4 6
-10 -1 -17z"/>
<path d="M2510 1749 c0 -5 5 -7 10 -4 6 3 10 8 10 11 0 2 -4 4 -10 4 -5 0 -10
-5 -10 -11z"/>
<path d="M2991 1639 c-7 -12 -10 -23 -8 -26 3 -3 11 5 17 17 15 28 8 35 -9 9z"/>
<path d="M3075 1620 c3 -5 8 -10 11 -10 2 0 4 5 4 10 0 6 -5 10 -11 10 -5 0
-7 -4 -4 -10z"/>
<path d="M3010 1570 c0 -5 5 -10 10 -10 6 0 10 5 10 10 0 6 -4 10 -10 10 -5 0
-10 -4 -10 -10z"/>
<path d="M3040 1560 c0 -5 5 -10 11 -10 5 0 7 -4 4 -10 -3 -5 -1 -10 4 -10 6
0 11 9 11 20 0 11 -7 20 -15 20 -8 0 -15 -4 -15 -10z"/>
<path d="M2820 1500 c0 -5 9 -10 20 -10 11 0 20 5 20 10 0 6 -9 10 -20 10 -11
0 -20 -4 -20 -10z"/>
<path d="M2457 1423 c-13 -13 -7 -41 8 -39 9 1 15 5 15 9 0 4 0 14 0 22 0 16
-12 20 -23 8z"/>
<path d="M2825 1407 c-5 -7 -11 -21 -13 -32 -3 -19 -2 -19 13 -4 9 9 15 23 13
32 -2 11 -6 12 -13 4z"/>
<path d="M2920 1390 c0 -5 5 -10 10 -10 6 0 10 5 10 10 0 6 -4 10 -10 10 -5 0
-10 -4 -10 -10z"/>
<path d="M2665 1349 c-4 -6 -5 -13 -2 -16 7 -7 27 6 27 18 0 12 -17 12 -25 -2z"/>
<path d="M2970 1334 c0 -14 -3 -14 -15 -4 -9 7 -19 10 -22 6 -4 -4 -1 -11 6
-16 8 -4 12 -17 8 -29 -3 -12 -3 -21 0 -21 7 0 34 28 34 37 1 4 5 7 10 5 6 -1
5 7 -1 18 -13 24 -20 26 -20 4z"/>
<path d="M3056 1335 c-3 -8 -1 -15 4 -15 6 0 10 7 10 15 0 8 -2 15 -4 15 -2 0
-6 -7 -10 -15z"/>
<path d="M3002 1304 c-11 -12 -10 -15 5 -21 10 -3 20 -7 23 -9 3 -1 6 9 6 22
2 27 -14 31 -34 8z"/>
<path d="M2970 1250 c-10 -14 -16 -16 -22 -7 -5 9 -11 7 -22 -8 -21 -28 -20
-38 8 -51 21 -10 25 -8 35 12 6 13 16 24 22 24 6 0 9 7 5 15 -3 9 0 15 9 15 8
0 15 5 15 10 0 18 -35 11 -50 -10z"/>
<path d="M2920 1159 c0 -5 5 -7 10 -4 6 3 10 8 10 11 0 2 -4 4 -10 4 -5 0 -10
-5 -10 -11z"/>
<path d="M2707 915 c-15 -14 -27 -27 -27 -29 0 -2 13 -6 28 -8 20 -3 28 0 28
12 1 8 4 23 9 33 10 25 -6 21 -38 -8z"/>
<path d="M2757 903 c-4 -3 -7 -11 -7 -17 0 -6 5 -5 12 2 6 6 9 14 7 17 -3 3
-9 2 -12 -2z"/>
<path d="M2901 871 c-17 -11 -6 -31 17 -31 13 0 14 2 3 9 -9 6 -10 11 -2 15
13 9 25 -18 17 -39 -4 -11 -11 -13 -29 -6 -14 6 -29 6 -38 0 -11 -7 -10 -9 4
-9 10 0 15 -4 12 -10 -3 -5 -1 -10 4 -10 6 0 11 -13 11 -30 0 -21 4 -28 14
-24 8 3 16 14 19 25 3 11 14 19 25 19 25 0 39 19 22 30 -6 4 -11 10 -11 14 3
24 -2 34 -24 44 -30 14 -27 14 -44 3z"/>
<path d="M2825 800 c-3 -5 -1 -10 4 -10 6 0 11 5 11 10 0 6 -2 10 -4 10 -3 0
-8 -4 -11 -10z"/>
<path d="M2988 773 c-10 -2 -18 -9 -18 -15 0 -5 6 -8 14 -5 8 3 17 1 20 -6 2
-7 5 -2 5 11 1 12 0 21 -1 21 -2 -1 -11 -3 -20 -6z"/>
<path d="M2806 761 c-4 -6 -2 -11 4 -11 7 0 9 -14 6 -39 -5 -44 12 -50 51 -17
29 24 30 52 2 59 -20 5 -20 5 -3 -14 9 -10 12 -19 6 -19 -6 0 -22 12 -35 26
-16 17 -27 22 -31 15z"/>
<path d="M2930 726 c0 -2 7 -9 15 -16 9 -7 15 -8 15 -2 0 5 -7 12 -15 16 -8 3
-15 4 -15 2z"/>
<path d="M3190 1605 c0 -8 2 -15 4 -15 2 0 6 7 10 15 3 8 1 15 -4 15 -6 0 -10
-7 -10 -15z"/>
<path d="M3190 1559 c0 -5 5 -7 10 -4 6 3 10 8 10 11 0 2 -4 4 -10 4 -5 0 -10
-5 -10 -11z"/>
<path d="M3850 1214 c0 -8 5 -12 10 -9 6 3 10 10 10 16 0 5 -4 9 -10 9 -5 0
-10 -7 -10 -16z"/>
</g>
</svg>
