<?xml version="1.0" standalone="no"?>
<!DOCTYPE svg PUBLIC "-//W3C//DTD SVG 20010904//EN"
 "http://www.w3.org/TR/2001/REC-SVG-20010904/DTD/svg10.dtd">
<svg version="1.0" xmlns="http://www.w3.org/2000/svg"
 width="473.000000pt" height="266.000000pt" viewBox="0 0 473.000000 266.000000"
 preserveAspectRatio="xMidYMid meet">

<g transform="translate(0.000000,266.000000) scale(0.100000,-0.100000)"
fill="#000000" stroke="none">
<path d="M0 1330 l0 -1330 2365 0 2365 0 0 131 c0 112 -2 130 -15 125 -8 -3
-38 -8 -67 -12 -53 -6 -106 -18 -143 -34 -107 -44 -514 -38 -672 9 l-58 18 37
4 c21 3 34 1 31 -5 -4 -5 11 -6 37 -2 24 4 47 2 54 -3 6 -5 50 -15 96 -20 98
-13 220 -13 180 -2 -20 6 -13 9 35 15 132 15 224 29 303 48 45 10 86 17 91 14
4 -3 8 1 8 8 0 10 -15 9 -66 -5 -80 -21 -273 -49 -342 -49 -31 0 -56 6 -65 15
-14 13 -13 15 3 16 16 0 16 1 -2 8 -11 5 -72 11 -135 14 -145 7 -285 37 -375
80 -38 19 -86 40 -105 47 -19 7 -39 18 -45 23 -7 7 -6 8 3 3 6 -4 12 -5 12 -2
0 2 -27 21 -60 41 -63 38 -81 56 -30 30 52 -27 76 -34 90 -25 9 6 -1 15 -36
31 -27 12 -71 32 -99 44 -36 17 -53 32 -61 53 -10 25 -9 30 2 25 8 -3 16 2 20
10 3 9 13 13 26 9 13 -3 24 1 30 12 5 9 21 16 38 16 17 0 30 5 30 10 0 6 7 10
15 10 8 0 15 5 15 11 0 17 90 5 132 -17 19 -10 65 -19 108 -22 63 -4 81 -1
108 15 30 19 31 21 15 35 -10 9 -42 28 -71 42 -63 32 -67 41 -9 20 24 -9 84
-17 142 -18 55 -1 146 -6 202 -11 102 -8 191 3 288 37 44 15 135 61 141 70 3
4 12 8 20 8 9 0 21 6 29 13 7 6 36 26 64 42 l51 30 0 172 0 171 -40 7 c-23 4
-46 3 -53 -3 -7 -5 -32 -10 -57 -10 -60 -2 -100 -11 -100 -24 0 -5 -19 -9 -42
-7 -24 1 -50 0 -58 -3 -8 -3 -45 -14 -83 -24 -37 -11 -67 -22 -67 -26 0 -4
-17 -10 -37 -14 -21 -3 -70 -17 -110 -30 -39 -12 -81 -20 -94 -17 -15 4 -20 3
-15 -5 4 -7 4 -12 -1 -13 -52 -3 -90 -11 -139 -29 -32 -12 -68 -23 -79 -24
-69 -11 -239 -66 -257 -84 -11 -11 16 -41 89 -100 l28 -23 -32 16 c-18 8 -49
27 -69 40 -26 18 -40 22 -45 14 -4 -6 -12 -8 -19 -4 -8 5 -11 4 -6 -3 3 -6 -3
-16 -14 -22 -17 -9 -19 -14 -8 -33 6 -12 12 -30 13 -40 1 -9 12 -29 26 -43 20
-21 21 -27 9 -34 -8 -5 -20 -10 -27 -10 -7 0 -10 -6 -8 -13 4 -8 -6 -13 -27
-14 -61 -3 -98 -8 -98 -14 0 -3 5 -10 12 -17 9 -9 8 -12 -7 -13 -11 0 -30 -2
-43 -5 -13 -2 -36 3 -52 11 -31 16 -39 9 -17 -15 9 -11 8 -11 -8 0 -11 8 -22
18 -25 21 -10 12 -115 42 -155 45 -85 5 -218 25 -238 36 -11 6 -55 11 -96 10
-62 0 -86 -5 -127 -26 -29 -14 -59 -26 -68 -26 -8 0 -39 -9 -67 -20 -28 -12
-53 -19 -56 -17 -2 3 35 20 82 38 47 18 85 37 85 41 0 4 6 8 14 8 8 0 17 7 20
16 3 8 2 13 -2 10 -5 -3 -35 -10 -68 -15 -32 -6 -69 -12 -82 -15 -18 -4 -22
-2 -17 13 5 15 0 16 -47 11 -29 -4 -93 -21 -143 -38 -49 -16 -108 -33 -130
-36 l-40 -7 35 14 c19 7 49 21 65 30 25 13 27 16 10 17 -59 4 -108 -1 -128
-14 -34 -22 -123 -45 -148 -39 -17 5 -20 3 -14 -8 5 -8 5 -11 1 -7 -4 3 -22 0
-39 -7 -59 -24 -137 -44 -137 -34 0 5 5 9 11 9 15 0 172 63 224 90 55 28 21
25 -37 -4 -30 -15 -49 -19 -51 -12 -3 8 -9 7 -18 -2 -20 -18 -31 -15 -24 8 8
25 -2 25 -84 -1 -109 -35 -120 -40 -115 -54 3 -8 -4 -16 -17 -20 -17 -6 -19
-9 -8 -16 10 -6 9 -8 -6 -7 -11 1 -32 -2 -47 -5 -40 -10 -35 -4 18 24 43 22
45 24 23 29 -25 6 -79 -15 -79 -31 0 -5 -9 -9 -21 -9 -15 0 -19 5 -15 15 8 23
-40 31 -63 11 -10 -9 -29 -16 -43 -16 -14 0 -33 -9 -43 -20 -17 -19 -17 -20 0
-26 14 -6 11 -11 -21 -30 -40 -24 -74 -31 -74 -15 0 5 6 12 12 15 7 3 0 3 -17
-1 -29 -5 -29 -5 -10 10 11 9 28 17 38 17 18 0 25 30 7 30 -17 0 -11 20 7 27
10 4 20 10 23 15 10 13 74 23 66 10 -5 -8 0 -12 13 -12 14 0 19 5 15 15 -4 9
0 15 7 15 12 0 12 2 1 9 -24 15 44 54 94 54 35 0 42 3 33 14 -9 10 -7 13 6 13
14 0 15 3 5 15 -14 17 -5 35 18 36 14 0 13 2 -3 9 -19 8 -19 9 3 9 12 1 22 7
22 14 0 25 144 147 241 204 35 20 75 47 89 60 14 13 28 23 31 23 15 0 172 167
190 202 11 21 23 36 28 34 13 -8 48 36 55 69 4 17 20 95 36 175 15 80 33 161
39 180 9 31 10 28 6 -30 l-5 -65 16 65 c8 36 24 108 35 160 32 153 118 402
185 541 61 125 62 129 39 129 -13 0 -29 -8 -35 -17 -11 -17 -11 -17 -6 0 5 16
-58 17 -1234 17 l-1240 0 0 -1330z m1987 178 c-3 -8 -6 -5 -6 6 -1 11 2 17 5
13 3 -3 4 -12 1 -19z m-290 -764 c-3 -3 -12 -4 -19 -1 -8 3 -5 6 6 6 11 1 17
-2 13 -5z m-37 -38 c0 -2 -7 -7 -16 -10 -8 -3 -12 -2 -9 4 6 10 25 14 25 6z
m295 -6 c-3 -5 -14 -10 -23 -9 -14 0 -13 2 3 9 27 11 27 11 20 0z m-288 -36
c-3 -3 -12 -4 -19 -1 -8 3 -5 6 6 6 11 1 17 -2 13 -5z m-42 -14 c-3 -5 -10
-10 -16 -10 -5 0 -9 5 -9 10 0 6 7 10 16 10 8 0 12 -4 9 -10z m1738 -85 c20
-14 37 -28 37 -31 0 -6 -67 32 -84 48 -22 19 12 7 47 -17z"/>
<path d="M2553 2618 c-45 -71 -139 -285 -187 -428 -66 -196 -167 -726 -127
-670 9 12 11 9 11 -14 l0 -30 20 22 c12 13 20 36 21 59 1 37 2 37 8 8 6 -26 9
-19 20 45 16 96 19 104 21 55 2 -31 8 -13 27 75 27 129 51 237 63 290 5 19 16
68 25 109 9 41 20 82 26 93 5 10 7 24 3 30 -4 7 -3 8 5 4 8 -6 10 0 5 18 -3
14 -2 26 3 26 5 0 15 21 22 48 8 26 42 104 76 175 35 70 60 127 57 127 -9 -1
-62 -88 -62 -101 0 -5 -4 -9 -8 -9 -5 0 -14 -12 -21 -26 -6 -15 -14 -24 -17
-21 -3 3 12 39 34 81 36 67 38 76 21 76 -11 0 -30 -17 -46 -42z"/>
<path d="M3840 2414 c0 -14 -3 -14 -15 -4 -13 10 -19 9 -36 -6 -16 -14 -22
-16 -28 -5 -6 9 -11 10 -15 3 -3 -6 -31 -18 -61 -26 -30 -9 -57 -21 -60 -26
-3 -6 -13 -10 -21 -10 -20 0 -84 -52 -84 -67 0 -7 -11 -13 -25 -13 -18 0 -25
-5 -25 -20 0 -11 -5 -19 -11 -17 -6 1 -29 -23 -50 -53 -21 -30 -48 -59 -59
-64 -17 -8 -21 -16 -20 -41 1 -3 -6 -12 -13 -20 -9 -8 -12 -25 -9 -40 3 -18 1
-25 -9 -23 -11 2 -15 -13 -17 -61 -3 -55 0 -67 20 -88 12 -13 28 -21 37 -18 8
3 17 2 20 -3 3 -4 33 -5 66 -2 33 4 53 8 45 9 -25 3 7 17 73 31 31 7 57 17 57
22 0 4 6 8 14 8 8 0 21 7 30 15 8 9 17 15 18 15 2 -1 16 3 31 9 16 6 37 11 48
11 10 0 19 6 19 13 0 7 17 19 38 26 20 8 39 17 42 20 31 38 121 88 149 82 7
-1 10 2 6 9 -4 7 2 14 14 17 12 3 20 11 19 17 -5 19 38 66 60 66 14 0 21 9 25
29 3 16 13 36 22 44 20 20 21 87 1 87 -8 0 -18 9 -21 20 -3 11 -11 21 -16 21
-5 1 -14 2 -20 3 -6 0 -17 10 -25 21 -13 17 -17 18 -36 6 -18 -11 -20 -11 -15
3 6 14 -5 16 -78 16 -72 0 -85 -3 -85 -16z"/>
<path d="M2232 1740 c0 -14 2 -19 5 -12 2 6 2 18 0 25 -3 6 -5 1 -5 -13z"/>
<path d="M1678 799 c-17 -18 -17 -19 0 -18 28 2 70 17 50 18 -10 1 -18 6 -18
11 0 15 -13 11 -32 -11z"/>
<path d="M1495 800 c-3 -5 -15 -10 -25 -10 -10 0 -21 -4 -24 -8 -3 -5 9 -6 26
-4 18 3 33 0 38 -9 7 -10 14 -10 34 -1 37 17 34 36 -4 28 -19 -3 -29 -2 -25 4
3 6 2 10 -4 10 -5 0 -13 -4 -16 -10z"/>
<path d="M1597 783 c7 -17 18 -16 32 1 10 11 7 14 -12 12 -15 0 -23 -6 -20
-13z"/>
<path d="M3558 563 c7 -3 16 -2 19 1 4 3 -2 6 -13 5 -11 0 -14 -3 -6 -6z"/>
</g>
</svg>
