<?xml version="1.0" standalone="no"?>
<!DOCTYPE svg PUBLIC "-//W3C//DTD SVG 20010904//EN"
 "http://www.w3.org/TR/2001/REC-SVG-20010904/DTD/svg10.dtd">
<svg version="1.0" xmlns="http://www.w3.org/2000/svg"
 width="474.000000pt" height="296.000000pt" viewBox="0 0 474.000000 296.000000"
 preserveAspectRatio="xMidYMid meet">

<g transform="translate(0.000000,296.000000) scale(0.100000,-0.100000)"
fill="#000000" stroke="none">
<path d="M0 2426 c0 -489 1 -534 16 -532 9 0 19 -4 21 -11 3 -7 -3 -9 -17 -6
l-21 5 1 -458 c1 -252 5 -452 10 -445 6 10 10 8 15 -10 4 -13 13 -28 19 -32 6
-4 -1 -5 -16 -1 l-28 6 0 -471 0 -471 783 0 c487 0 788 4 797 10 8 5 11 10 7
10 -18 0 15 40 33 40 13 0 20 7 20 20 0 14 5 18 16 13 11 -4 12 -8 4 -13 -9
-6 -9 -13 -1 -28 14 -27 14 -35 -1 -26 -7 4 -8 3 -4 -4 10 -17 36 -15 36 3 0
16 12 20 23 8 4 -3 2 -12 -4 -19 -9 -11 250 -14 1510 -14 l1521 0 0 1480 0
1480 -1372 -3 c-755 -2 -1385 -6 -1400 -9 -16 -4 -28 -2 -28 3 0 5 -5 9 -11 9
-5 0 -7 -4 -4 -10 3 -5 1 -10 -4 -10 -6 0 -11 4 -11 9 0 5 -391 10 -934 10
-755 2 -935 -1 -939 -11 -4 -10 -6 -10 -6 0 -1 6 -8 12 -16 12 -13 0 -15 -66
-15 -534z m1759 492 c-7 -14 -7 -18 -1 -14 6 4 15 -2 21 -11 7 -12 10 -13 11
-4 0 8 6 11 16 7 19 -7 47 12 38 25 -3 5 4 9 15 9 12 0 21 -4 21 -10 0 -5 -4
-10 -10 -10 -5 0 -10 -5 -10 -11 0 -5 5 -7 10 -4 6 3 10 1 10 -4 0 -6 -4 -12
-10 -12 -5 -1 -14 -3 -20 -4 -5 -1 -14 -3 -19 -4 -5 0 -13 -11 -17 -23 -10
-32 -32 -51 -54 -45 -11 3 -25 -2 -32 -12 -12 -14 -11 -15 5 -2 17 13 23 7 18
-21 0 -5 4 -8 10 -8 5 0 7 -5 3 -11 -5 -8 -9 -7 -15 4 -5 8 -17 14 -27 13 -9
-2 -25 6 -35 18 -10 12 -23 22 -28 22 -5 1 -16 2 -24 3 -9 1 -14 10 -13 24 2
22 5 23 40 17 21 -4 38 -4 38 0 0 4 9 10 20 13 24 6 23 26 -3 45 -18 14 -15
32 6 32 8 0 8 -3 -2 -9 -8 -5 -9 -11 -3 -15 6 -3 13 3 17 13 4 12 12 18 20 14
11 -4 12 -10 4 -25z m425 16 c4 -10 1 -14 -6 -12 -15 5 -23 28 -10 28 5 0 13
-7 16 -16z m60 -15 c-9 -16 -20 -10 -21 12 -2 17 1 18 12 9 8 -7 12 -16 9 -21z
m476 19 c0 -7 -5 -20 -10 -28 -8 -12 -10 -9 -10 13 0 15 5 27 10 27 6 0 10 -6
10 -12z m-915 -17 c-3 -6 -14 -10 -23 -10 -15 1 -15 2 1 6 9 2 17 9 17 15 0 6
3 9 6 5 3 -3 3 -10 -1 -16z m265 3 c0 -2 -7 -4 -15 -4 -8 0 -15 4 -15 10 0 5
7 7 15 4 8 -4 15 -8 15 -10z m40 12 c0 -3 -4 -8 -10 -11 -5 -3 -10 -1 -10 4 0
6 5 11 10 11 6 0 10 -2 10 -4z m-104 -38 c5 -7 2 -9 -9 -5 -9 3 -17 1 -19 -4
-2 -6 -12 -7 -22 -3 -14 5 -15 9 -4 15 19 12 46 11 54 -3z m-318 -16 c2 -7 -3
-12 -12 -12 -9 0 -16 7 -16 16 0 17 22 14 28 -4z m-218 -4 c0 -4 -4 -8 -9 -8
-6 0 -12 4 -15 8 -3 5 1 9 9 9 8 0 15 -4 15 -9z m946 -20 c4 -6 -2 -7 -17 -3
-35 10 -45 23 -15 18 15 -3 29 -10 32 -15z m-1161 2 c3 -5 -1 -10 -10 -10 -9
0 -13 5 -10 10 3 6 8 10 10 10 2 0 7 -4 10 -10z m-275 -10 c0 -5 -4 -10 -9
-10 -6 0 -13 5 -16 10 -3 6 1 10 9 10 9 0 16 -4 16 -10z m1110 0 c0 -5 -4 -10
-10 -10 -5 0 -10 5 -10 10 0 6 5 10 10 10 6 0 10 -4 10 -10z m376 -7 c-10 -11
-37 -12 -30 -2 3 5 12 9 21 9 9 0 13 -3 9 -7z m-456 -43 c0 -5 -4 -10 -10 -10
-5 0 -10 5 -10 10 0 6 5 10 10 10 6 0 10 -4 10 -10z m-1786 -15 c-7 -16 -24
-21 -24 -6 0 8 7 13 27 20 1 1 0 -6 -3 -14z m986 1 c0 -8 -5 -18 -12 -22 -7
-4 -8 -3 -4 4 4 7 2 12 -4 12 -6 0 -8 5 -5 10 9 15 25 12 25 -4z m130 -19 c0
-5 -4 -5 -10 -2 -5 3 -10 14 -10 23 0 15 2 15 10 2 5 -8 10 -19 10 -23z m280
18 c10 -13 9 -15 -9 -15 -12 0 -21 6 -21 15 0 8 4 15 9 15 5 0 14 -7 21 -15z
m-240 -4 c0 -5 -7 -11 -15 -15 -9 -3 -15 0 -15 9 0 8 7 15 15 15 8 0 15 -4 15
-9z m-279 -14 c-1 -12 -15 -9 -19 4 -3 6 1 10 8 8 6 -3 11 -8 11 -12z m904 3
c3 -5 1 -10 -4 -10 -6 0 -11 5 -11 10 0 6 2 10 4 10 3 0 8 -4 11 -10z m-495
-10 c0 -5 -7 -10 -16 -10 -8 0 -12 5 -9 10 3 6 10 10 16 10 5 0 9 -4 9 -10z
m1150 -10 c0 -5 -4 -10 -10 -10 -5 0 -10 5 -10 10 0 6 5 10 10 10 6 0 10 -4
10 -10z m-1640 -10 c0 -5 -4 -10 -10 -10 -5 0 -10 5 -10 10 0 6 5 10 10 10 6
0 10 -4 10 -10z m715 -9 c0 -9 -11 -15 -27 -15 -16 -1 -28 -1 -28 0 0 1 3 10
6 19 8 20 49 16 49 -4z m-125 -6 c0 -8 -4 -15 -9 -15 -5 0 -11 7 -15 15 -3 9
0 15 9 15 8 0 15 -7 15 -15z m182 -7 c-7 -7 -12 -8 -12 -2 0 14 12 26 19 19 2
-3 -1 -11 -7 -17z m-192 -31 c0 -3 -7 -8 -16 -11 -12 -5 -15 -2 -10 10 5 12 2
15 -10 10 -14 -5 -15 -4 -4 8 10 13 14 13 26 1 8 -7 14 -16 14 -18z m1195 23
c3 -5 1 -10 -4 -10 -6 0 -11 5 -11 10 0 6 2 10 4 10 3 0 8 -4 11 -10z m-1305
-4 c0 -3 -4 -8 -10 -11 -5 -3 -10 -1 -10 4 0 6 5 11 10 11 6 0 10 -2 10 -4z
m30 -20 c0 -3 -4 -8 -10 -11 -5 -3 -10 -1 -10 4 0 6 5 11 10 11 6 0 10 -2 10
-4z m104 -31 c-5 -19 -2 -25 10 -25 9 0 19 7 22 15 4 8 12 15 19 15 18 0 15
-38 -3 -45 -7 -3 -10 -9 -7 -15 10 -17 -7 -11 -22 8 -8 9 -12 11 -8 5 3 -7 1
-13 -4 -13 -6 0 -11 5 -11 11 0 5 -4 8 -9 5 -4 -3 -6 6 -3 19 2 15 0 25 -7 25
-7 0 -9 5 -6 10 3 6 13 10 21 10 10 0 13 -7 8 -25z m-297 -27 c-3 -7 -5 -2 -5
12 0 14 2 19 5 13 2 -7 2 -19 0 -25z m-136 -3 c6 14 7 7 3 -20 -4 -32 -3 -38
7 -27 7 6 16 12 19 12 9 0 -1 -63 -12 -77 -8 -9 -6 -13 5 -13 17 0 33 -18 23
-27 -3 -3 -19 9 -36 26 -18 17 -36 29 -41 25 -5 -3 -9 0 -9 6 0 7 -8 9 -20 5
-21 -7 -25 1 -12 22 6 10 12 10 28 -2 25 -19 40 -19 23 1 -10 12 -10 17 0 23
7 4 10 19 8 32 -2 13 -2 17 1 9 4 -12 7 -11 13 5z m-334 -17 c0 -13 -1 -17 -4
-10 -3 6 -9 10 -14 6 -10 -6 -12 9 -2 19 12 13 19 7 20 -15z m77 -2 c24 9 20
-19 -4 -34 -12 -7 -25 -10 -30 -7 -6 4 -10 1 -10 -4 0 -6 8 -11 18 -11 14 0
15 -2 2 -10 -23 -15 -43 -12 -36 6 3 8 2 12 -4 9 -6 -3 -10 -1 -10 5 0 6 -5 8
-12 4 -6 -4 -8 -3 -5 4 4 5 17 8 29 4 18 -4 20 -2 14 13 -6 18 -6 18 15 -1
l22 -19 -12 23 c-6 12 -18 22 -26 22 -8 0 -15 5 -15 11 0 7 9 5 24 -5 14 -9
32 -13 40 -10z m526 14 c3 -3 22 -14 43 -25 27 -14 37 -26 35 -40 -1 -11 1
-25 5 -32 7 -12 -11 -63 -26 -74 -5 -3 -8 -10 -7 -15 1 -5 -4 -10 -11 -13 -8
-2 -10 3 -7 15 4 15 -1 19 -19 19 -21 0 -22 -1 -6 -13 16 -11 16 -14 3 -22
-19 -12 -22 -12 -40 1 -12 9 -12 10 3 5 12 -4 17 -2 15 6 -8 22 -36 20 -43 -2
-4 -12 -9 -19 -11 -17 -7 7 18 57 29 57 5 0 6 7 3 16 -3 8 -2 13 3 10 5 -3 11
1 14 9 4 9 1 12 -9 8 -8 -3 -21 1 -30 8 -12 10 -17 10 -23 1 -8 -13 -61 -13
-61 -1 0 4 7 15 16 23 14 15 14 16 -3 16 -12 0 -18 7 -18 24 0 19 5 23 23 21
13 -1 29 -8 35 -15 9 -10 9 -11 0 -6 -7 4 -13 3 -13 -2 0 -6 11 -13 25 -16 16
-4 25 -13 23 -23 -2 -9 3 -18 11 -21 8 -3 11 0 7 7 -4 6 -2 11 3 11 6 0 11 5
11 11 0 13 -26 40 -33 33 -3 -3 -4 3 -3 13 2 24 40 40 56 23z m-170 -45 c-7
-8 -20 -15 -28 -15 -13 0 -12 3 4 15 25 19 40 19 24 0z m330 1 c0 -3 -4 -8
-10 -11 -5 -3 -10 -1 -10 4 0 6 5 11 10 11 6 0 10 -2 10 -4z m34 -21 c-7 -16
-24 -21 -24 -6 0 8 7 13 27 20 1 1 0 -6 -3 -14z m76 -31 c0 -17 -17 -27 -25
-14 -3 5 -21 10 -38 9 -27 0 -29 -2 -12 -9 15 -6 16 -9 4 -9 -23 -1 -31 10
-18 25 14 18 89 15 89 -2z m-610 -41 c0 -7 8 -13 18 -13 9 0 26 -7 36 -15 26
-20 37 -19 29 3 -6 15 -5 15 11 3 9 -8 13 -17 8 -20 -17 -12 -21 -40 -7 -51
16 -13 39 -4 30 11 -7 10 6 16 45 23 14 3 25 5 25 6 0 1 8 3 18 5 15 3 18 -1
14 -16 -4 -17 -3 -18 9 -8 31 26 11 -10 -22 -39 -29 -26 -33 -33 -20 -38 17
-6 23 -34 7 -34 -4 0 -6 -11 -3 -25 5 -28 -14 -35 -21 -7 -3 14 -6 12 -17 -10
-7 -14 -22 -29 -34 -32 -17 -5 -18 -8 -7 -15 12 -8 12 -12 2 -24 -9 -12 -9
-17 0 -23 8 -4 9 -3 5 4 -11 18 3 14 30 -7 l24 -19 -30 -4 c-19 -3 -31 0 -35
9 -2 8 -9 11 -15 8 -7 -4 -7 2 -1 18 8 21 7 25 -7 22 -9 -1 -21 3 -25 9 -4 6
-5 -1 -1 -17 5 -22 3 -26 -10 -21 -9 3 -16 2 -16 -4 0 -5 7 -12 15 -16 15 -6
10 -35 -9 -48 -6 -4 -5 -12 3 -22 18 -22 6 -70 -36 -138 -31 -53 -43 -63 -65
-59 -5 0 -8 -6 -8 -14 0 -8 -4 -15 -10 -15 -5 0 -10 -5 -10 -10 0 -6 6 -10 13
-9 35 4 55 -3 60 -21 6 -24 -18 -28 -27 -4 -4 9 -9 14 -13 11 -10 -11 -45 14
-39 28 2 7 -2 21 -9 32 -20 25 -19 57 0 49 8 -3 15 -1 15 4 0 17 -30 11 -37
-7 -9 -23 -59 -74 -66 -67 -11 11 10 57 27 60 24 3 26 7 16 24 -7 10 -10 11
-10 3 0 -7 -7 -13 -16 -13 -10 0 -14 6 -10 15 3 8 2 14 -2 14 -22 -4 -32 3
-32 22 0 13 4 18 12 13 7 -5 8 -3 2 7 -20 32 -10 55 16 38 13 -8 13 -10 0 -19
-12 -8 -11 -10 5 -10 12 0 26 -4 33 -10 9 -7 9 -7 2 2 -18 22 -11 27 35 23 42
-4 45 -2 45 21 0 14 -7 27 -15 30 -14 6 -13 8 2 21 10 8 13 12 7 9 -6 -3 -27
10 -47 28 -36 33 -47 56 -27 56 20 0 22 31 5 50 -17 19 -17 20 1 21 11 0 13 3
7 6 -7 2 -13 12 -12 21 0 11 2 12 6 5 5 -14 24 -18 22 -5 -3 18 2 24 14 15 18
-15 49 -24 42 -13 -3 5 0 19 7 30 11 17 11 22 -2 30 -12 8 -10 10 8 10 12 0
34 -8 48 -17 25 -16 26 -16 22 8 -2 19 2 25 27 30 23 5 17 7 -23 6 -37 0 -58
5 -70 16 -12 13 -13 17 -3 17 11 0 11 4 -2 18 -15 16 -15 20 3 49 10 17 18 33
17 35 -1 2 4 -3 11 -11 6 -8 12 -21 12 -28z m460 -8 c0 -2 -10 -10 -22 -16
-21 -11 -22 -11 -9 4 13 16 31 23 31 12z m-319 -28 c-13 -13 -26 -3 -16 12 3
6 11 8 17 5 6 -4 6 -10 -1 -17z m-1071 -11 c0 -11 -19 -15 -25 -6 -3 5 1 10 9
10 9 0 16 -2 16 -4z m1348 -49 c-9 -6 -6 -7 9 -4 15 3 20 1 16 -9 -3 -8 -11
-14 -18 -14 -7 0 -15 -9 -18 -21 -3 -12 -9 -19 -14 -16 -5 3 -20 -3 -33 -14
-14 -10 -19 -19 -12 -19 6 0 12 -5 12 -10 0 -7 -7 -7 -20 0 -16 8 -18 15 -10
29 5 10 6 21 3 25 -10 10 30 36 47 30 12 -4 13 -3 3 7 -20 20 -16 26 17 26 22
0 27 -3 18 -10z m-1043 -17 c3 -5 1 -10 -4 -10 -6 0 -11 5 -11 10 0 6 2 10 4
10 3 0 8 -4 11 -10z m-385 -46 c0 -8 -4 -12 -10 -9 -5 3 -10 13 -10 21 0 8 5
12 10 9 6 -3 10 -13 10 -21z m1319 -33 c9 -16 7 -18 -14 -15 -14 1 -25 -2 -25
-7 0 -6 -4 -8 -10 -4 -5 3 -2 14 8 25 22 24 29 24 41 1z m-204 -161 c3 -5 -1
-10 -10 -10 -9 0 -13 5 -10 10 3 6 8 10 10 10 2 0 7 -4 10 -10z m-750 -33 c12
-10 14 -16 7 -21 -15 -9 -54 12 -47 25 8 12 18 11 40 -4z m815 -14 c0 -9 -6
-13 -14 -10 -8 3 -16 1 -18 -5 -2 -6 -9 -8 -16 -4 -6 3 -9 13 -6 21 4 8 10 12
15 9 5 -3 9 -1 9 5 0 6 7 8 15 5 8 -4 15 -13 15 -21z m-70 7 c0 -5 -5 -10 -11
-10 -5 0 -7 5 -4 10 3 6 8 10 11 10 2 0 4 -4 4 -10z m-805 -10 c3 -5 2 -10 -4
-10 -5 0 -13 5 -16 10 -3 6 -2 10 4 10 5 0 13 -4 16 -10z m468 -16 c-4 -10 0
-20 10 -25 14 -8 14 -12 0 -39 -8 -17 -19 -30 -25 -30 -5 0 -7 -7 -4 -16 3 -8
1 -24 -4 -35 -6 -10 -7 -19 -2 -19 5 0 8 -13 7 -30 -1 -21 3 -30 14 -30 14 -1
13 -2 -1 -11 -10 -5 -18 -17 -18 -26 0 -14 -3 -14 -19 3 -12 13 -15 21 -7 26
8 6 8 8 -1 8 -7 0 -10 9 -6 23 8 35 10 131 3 142 -4 6 -10 21 -13 34 -5 20 -3
23 19 18 16 -3 28 1 31 9 3 8 9 14 14 14 4 0 6 -7 2 -16z m-406 -76 c-3 -7 -5
-2 -5 12 0 14 2 19 5 13 2 -7 2 -19 0 -25z m-390 -53 c7 -21 2 -25 -25 -18
-12 3 -22 12 -22 19 0 19 39 18 47 -1z m1118 5 c3 -5 -1 -10 -9 -10 -9 0 -16
5 -16 10 0 6 4 10 9 10 6 0 13 -4 16 -10z m-770 -60 c-3 -5 1 -10 10 -10 9 0
13 -5 10 -10 -5 -8 -11 -7 -21 1 -12 10 -11 29 2 29 3 0 2 -4 -1 -10z m-45
-30 c0 -5 -4 -10 -10 -10 -5 0 -10 5 -10 10 0 6 5 10 10 10 6 0 10 -4 10 -10z
m730 0 c0 -5 -5 -10 -11 -10 -5 0 -7 5 -4 10 3 6 8 10 11 10 2 0 4 -4 4 -10z
m-656 -26 c3 -8 11 -12 17 -8 8 4 9 3 5 -5 -11 -17 3 -51 18 -45 10 4 12 -2 9
-20 -4 -18 0 -28 11 -32 9 -3 14 -10 11 -14 -6 -10 39 -75 51 -74 5 1 20 5 34
8 23 7 24 6 5 -6 -11 -7 -24 -13 -29 -13 -21 0 -16 -25 4 -25 16 0 20 -4 16
-15 -5 -15 3 -18 34 -16 10 0 11 -1 3 -5 -19 -8 -16 -37 2 -30 8 3 26 1 40 -4
17 -6 25 -6 25 1 0 6 5 7 11 3 20 -12 -12 -22 -57 -17 -27 3 -44 0 -44 -6 0
-6 14 -11 30 -11 20 0 30 -5 30 -15 0 -8 6 -15 13 -15 8 0 7 -4 -3 -10 -8 -5
-19 -10 -25 -10 -5 0 -3 5 5 10 8 5 11 10 5 11 -5 1 -14 3 -20 3 -5 1 -20 7
-31 14 -12 6 -24 9 -28 5 -6 -6 -66 56 -66 70 0 11 18 9 25 -4 4 -6 14 -8 22
-5 9 4 17 -1 20 -14 6 -21 23 -28 23 -9 0 12 -73 96 -87 101 -4 2 -8 8 -8 13
0 6 -17 38 -37 72 -38 63 -63 133 -48 133 4 0 11 -7 14 -16z m-277 0 c-3 -3
-12 -4 -19 -1 -8 3 -5 6 6 6 11 1 17 -2 13 -5z m1003 -16 c0 -19 -2 -20 -10
-8 -13 19 -13 30 0 30 6 0 10 -10 10 -22z m-184 -18 c8 0 14 -4 14 -10 0 -5
-3 -9 -7 -9 -21 3 -33 -2 -33 -16 0 -8 -4 -15 -10 -15 -5 0 -10 12 -10 26 0
14 -4 23 -10 19 -5 -3 -10 -1 -10 4 0 6 9 11 20 11 11 0 21 6 21 13 1 6 3 4 6
-5 2 -10 11 -18 19 -18z m1244 20 c0 -5 -7 -10 -15 -10 -8 0 -15 5 -15 10 0 6
7 10 15 10 8 0 15 -4 15 -10z m-1382 -37 c18 -4 20 -8 10 -14 -21 -14 -48 -10
-48 6 0 17 4 18 38 8z m-418 -13 c0 -5 -2 -10 -4 -10 -3 0 -8 5 -11 10 -3 6
-1 10 4 10 6 0 11 -4 11 -10z m388 -53 c0 -30 -12 -36 -22 -10 -4 9 -2 20 5
23 8 6 8 9 0 14 -6 4 -11 12 -11 17 0 6 6 4 14 -3 7 -8 14 -26 14 -41z m1372
33 c0 -5 -2 -10 -4 -10 -3 0 -8 5 -11 10 -3 6 -1 10 4 10 6 0 11 -4 11 -10z
m262 -13 c-17 -8 -26 -7 -35 3 -10 10 -8 12 11 7 12 -3 22 -1 22 5 0 5 5 6 12
2 8 -5 5 -11 -10 -17z m-1915 7 c-3 -3 -12 -4 -19 -1 -8 3 -5 6 6 6 11 1 17
-2 13 -5z m2085 -26 c-7 -7 -12 -8 -12 -2 0 14 12 26 19 19 2 -3 -1 -11 -7
-17z m-1772 8 c0 -3 -4 -8 -10 -11 -5 -3 -10 -1 -10 4 0 6 5 11 10 11 6 0 10
-2 10 -4z m547 -2 c-3 -3 -12 -4 -19 -1 -8 3 -5 6 6 6 11 1 17 -2 13 -5z m963
-12 c-19 -7 -10 -20 10 -15 14 4 20 0 20 -11 0 -10 5 -14 10 -11 6 4 8 10 5
15 -3 4 1 13 9 19 18 15 66 4 74 -18 3 -9 15 -24 27 -33 19 -15 20 -15 27 0 5
13 7 11 8 -8 2 -14 2 -29 1 -33 -1 -4 8 -3 20 4 15 8 19 8 15 0 -7 -11 4 -15
37 -12 24 3 21 -8 -5 -19 -21 -8 -21 -9 -3 -10 17 0 17 -2 5 -10 -13 -8 -13
-10 1 -10 17 0 22 -28 7 -46 -4 -6 -6 -18 -3 -26 4 -9 -1 -18 -10 -22 -9 -3
-13 -10 -10 -16 3 -5 1 -10 -5 -10 -6 0 -9 -4 -5 -9 3 -6 -3 -8 -14 -6 -14 2
-18 -1 -14 -11 4 -11 -2 -13 -26 -8 -26 5 -31 3 -31 -12 0 -16 -2 -16 -9 -4
-6 8 -7 18 -5 22 6 10 -10 11 -20 1 -11 -12 -37 -12 -29 0 4 6 0 8 -10 4 -10
-4 -25 -10 -34 -13 -15 -5 -16 -4 -3 5 12 9 11 11 -10 12 -14 1 -28 1 -32 0
-5 0 -8 4 -8 9 0 6 -13 10 -30 10 -16 0 -30 -5 -30 -12 0 -6 -3 -8 -6 -5 -4 4
-1 14 7 24 8 9 9 14 2 10 -7 -4 -16 0 -22 10 -9 16 -10 16 -11 -4 0 -13 -5
-23 -11 -23 -7 0 -9 10 -7 24 4 19 1 23 -10 18 -11 -4 -14 -1 -9 11 4 11 1 17
-9 17 -8 0 -12 -4 -9 -10 3 -5 1 -10 -4 -10 -6 0 -11 4 -11 9 0 5 -10 12 -22
16 -20 6 -20 8 -5 12 21 6 21 10 2 30 -8 8 -13 19 -10 24 8 12 -11 12 -33 0
-12 -6 -24 -5 -37 5 -20 15 -18 15 35 16 3 1 17 -2 33 -6 15 -3 27 -3 26 1 -5
30 2 41 24 36 21 -6 21 -6 -3 15 -19 17 -21 21 -6 15 16 -5 18 -3 12 12 -7 18
-6 18 13 1 13 -12 26 -16 38 -11 10 4 27 8 37 9 11 1 21 8 23 16 4 13 3 13 -6
0 -8 -12 -14 -12 -28 -4 -14 9 -20 8 -30 -5 -6 -9 -14 -13 -18 -10 -9 9 25 40
36 34 5 -4 9 -2 9 2 0 5 20 9 45 9 25 -1 41 -2 35 -4z m-1965 -19 c40 -19 43
-28 15 -43 -11 -6 -20 -7 -19 -3 4 16 -13 43 -27 43 -8 0 -14 5 -14 10 0 13 3
13 45 -7z m470 7 c3 -5 1 -10 -4 -10 -6 0 -11 5 -11 10 0 6 2 10 4 10 3 0 8
-4 11 -10z m1735 5 c0 -3 -8 -17 -17 -31 l-17 -26 -8 22 c-5 13 -6 25 -3 28 3
3 5 0 5 -6 0 -7 5 -12 10 -12 6 0 10 7 10 15 0 8 5 15 10 15 6 0 10 -2 10 -5z
m-70 -15 c0 -5 -4 -10 -9 -10 -6 0 -13 5 -16 10 -3 6 1 10 9 10 9 0 16 -4 16
-10z m620 0 c0 -5 -4 -10 -10 -10 -5 0 -10 5 -10 10 0 6 5 10 10 10 6 0 10 -4
10 -10z m-2473 -6 c-3 -3 -12 -4 -19 -1 -8 3 -5 6 6 6 11 1 17 -2 13 -5z
m-414 -21 c18 -9 36 -16 40 -15 5 1 5 -2 2 -8 -4 -6 1 -18 11 -25 18 -14 18
-14 -4 -15 -13 0 -40 17 -65 40 -44 42 -38 51 16 23z m799 -15 c-7 -7 -12 -8
-12 -2 0 14 12 26 19 19 2 -3 -1 -11 -7 -17z m-202 2 c0 -5 -2 -10 -4 -10 -3
0 -8 5 -11 10 -3 6 -1 10 4 10 6 0 11 -4 11 -10z m2378 -28 c23 -15 29 -32 12
-32 -19 0 -90 40 -90 50 0 13 47 2 78 -18z m-2351 12 c-4 -4 5 -20 18 -36 14
-16 25 -36 25 -44 0 -7 9 -19 20 -26 11 -7 20 -18 20 -25 0 -7 5 -13 12 -13 8
0 7 -5 -3 -16 -18 -17 -74 -10 -62 9 4 6 0 8 -10 4 -11 -4 -17 -1 -17 8 0 13
-39 22 -72 16 -12 -2 -9 14 5 28 10 10 9 11 -5 6 -11 -4 -18 -2 -18 4 0 6 7
11 15 11 8 0 15 5 15 10 0 9 -14 14 -33 11 -21 -3 22 41 48 48 38 12 50 13 42
5z m1803 -34 c0 -5 -5 -10 -11 -10 -5 0 -7 5 -4 10 3 6 8 10 11 10 2 0 4 -4 4
-10z m-1745 -10 c3 -5 1 -10 -4 -10 -6 0 -11 5 -11 10 0 6 2 10 4 10 3 0 8 -4
11 -10z m1105 0 c0 -5 -4 -10 -10 -10 -5 0 -10 5 -10 10 0 6 5 10 10 10 6 0
10 -4 10 -10z m616 -42 c-19 -13 -24 -9 -19 11 4 16 8 17 18 8 9 -9 10 -14 1
-19z m-2431 12 c3 -5 1 -10 -4 -10 -6 0 -11 5 -11 10 0 6 2 10 4 10 3 0 8 -4
11 -10z m870 -9 c-3 -6 -14 -11 -23 -11 -15 1 -15 2 2 15 21 16 32 13 21 -4z
m-315 -11 c8 -5 11 -12 8 -16 -4 -3 -14 1 -23 10 -18 17 -9 21 15 6z m422 -22
c-11 -11 -55 -1 -47 11 2 5 16 6 30 3 17 -3 23 -8 17 -14z m902 7 c-4 -8 -8
-15 -10 -15 -2 0 -4 7 -4 15 0 8 4 15 10 15 5 0 7 -7 4 -15z m561 5 c3 -5 -1
-10 -10 -10 -9 0 -13 5 -10 10 3 6 8 10 10 10 2 0 7 -4 10 -10z m-1542 -6 c9
-9 -27 -41 -40 -36 -9 3 -10 9 -2 23 9 19 30 25 42 13z m947 -4 c0 -5 -5 -10
-11 -10 -5 0 -7 5 -4 10 3 6 8 10 11 10 2 0 4 -4 4 -10z m765 0 c3 -5 1 -10
-4 -10 -6 0 -11 5 -11 10 0 6 2 10 4 10 3 0 8 -4 11 -10z m-2376 -22 c11 -15
11 -18 -1 -18 -7 0 -14 10 -15 21 -1 12 -1 20 0 18 2 -2 9 -12 16 -21z m541
12 c0 -5 -2 -10 -4 -10 -3 0 -8 5 -11 10 -3 6 -1 10 4 10 6 0 11 -4 11 -10z
m1141 -13 c-1 -12 -15 -9 -19 4 -3 6 1 10 8 8 6 -3 11 -8 11 -12z m-76 -27 c3
-6 -1 -7 -9 -4 -18 7 -21 14 -7 14 6 0 13 -4 16 -10z m1810 -18 c-8 -8 -25 10
-19 20 4 6 9 5 15 -3 4 -7 6 -15 4 -17z m-2720 8 c3 -5 -1 -10 -10 -10 -9 0
-13 5 -10 10 3 6 8 10 10 10 2 0 7 -4 10 -10z m1062 -12 c-3 -8 -6 -5 -6 6 -1
11 2 17 5 13 3 -3 4 -12 1 -19z m-1151 -36 c-9 -8 -40 16 -42 33 -2 14 2 13
22 -6 13 -12 22 -24 20 -27z m138 23 c-4 -8 -1 -15 5 -15 6 0 11 7 11 15 0 13
2 14 14 3 8 -7 12 -16 9 -20 -2 -5 1 -8 6 -8 6 0 11 -5 11 -11 0 -16 -51 -1
-72 21 -17 18 -14 30 8 30 8 0 11 -6 8 -15z m681 5 c3 -5 1 -10 -4 -10 -6 0
-11 5 -11 10 0 6 2 10 4 10 3 0 8 -4 11 -10z m-855 -30 c0 -6 -52 -30 -65 -30
-1 0 -2 11 -2 24 0 18 6 26 21 28 21 4 46 -8 46 -22z m2028 -5 c-3 -3 -9 2
-12 12 -6 14 -5 15 5 6 7 -7 10 -15 7 -18z m-1198 -15 c0 -5 -2 -10 -4 -10 -3
0 -8 5 -11 10 -3 6 -1 10 4 10 6 0 11 -4 11 -10z m701 -15 c5 4 9 1 9 -4 0
-16 -37 -13 -43 3 -8 20 5 29 16 11 4 -8 12 -13 18 -10z m-101 -19 c0 -3 -4
-8 -10 -11 -5 -3 -10 -1 -10 4 0 6 5 11 10 11 6 0 10 -2 10 -4z m-1370 -26 c0
-5 -5 -10 -11 -10 -5 0 -7 5 -4 10 3 6 8 10 11 10 2 0 4 -4 4 -10z m237 -16
c-3 -3 -12 -4 -19 -1 -8 3 -5 6 6 6 11 1 17 -2 13 -5z m-92 -25 c0 -8 -7 -12
-15 -10 -8 2 -24 3 -35 3 -17 -1 -17 1 5 13 29 16 45 14 45 -6z m1465 -39 c0
-5 -2 -10 -4 -10 -3 0 -8 5 -11 10 -3 6 -1 10 4 10 6 0 11 -4 11 -10z m-2155
-10 c3 -5 1 -10 -4 -10 -6 0 -11 5 -11 10 0 6 2 10 4 10 3 0 8 -4 11 -10z
m1625 -14 c0 -3 -4 -8 -10 -11 -5 -3 -10 -1 -10 4 0 6 5 11 10 11 6 0 10 -2
10 -4z m-1784 -61 c-1 -27 -10 -21 -21 12 -5 18 -3 22 8 17 8 -3 14 -16 13
-29z m609 15 c18 -19 17 -20 -2 -20 -12 0 -23 8 -26 20 -3 11 -2 20 2 20 5 0
16 -9 26 -20z m2735 10 c0 -5 -5 -10 -11 -10 -5 0 -7 5 -4 10 3 6 8 10 11 10
2 0 4 -4 4 -10z m30 6 c0 -3 -4 -8 -10 -11 -5 -3 -10 -1 -10 4 0 6 5 11 10 11
6 0 10 -2 10 -4z m-2685 -46 c3 -6 -1 -7 -9 -4 -18 7 -21 14 -7 14 6 0 13 -4
16 -10z m2985 -10 c0 -13 -11 -13 -30 0 -12 8 -11 10 8 10 12 0 22 -4 22 -10z
m-325 -39 c-3 -5 -1 -12 5 -16 6 -4 5 -12 -5 -21 -8 -9 -19 -13 -24 -9 -11 6
-3 36 13 47 15 10 18 10 11 -1z m-355 -11 c0 -5 -4 -10 -10 -10 -5 0 -10 5
-10 10 0 6 5 10 10 10 6 0 10 -4 10 -10z m310 0 c0 -5 -2 -10 -4 -10 -3 0 -8
5 -11 10 -3 6 -1 10 4 10 6 0 11 -4 11 -10z m-3610 -10 c0 -5 -5 -10 -11 -10
-5 0 -7 5 -4 10 3 6 8 10 11 10 2 0 4 -4 4 -10z m4370 6 c0 -3 -4 -8 -10 -11
-5 -3 -10 -1 -10 4 0 6 5 11 10 11 6 0 10 -2 10 -4z m-3935 -16 c8 7 16 7 19
2 8 -13 -19 -23 -39 -16 -8 4 -12 11 -8 17 5 8 8 7 11 -1 3 -10 7 -10 17 -2z
m522 -4 c0 -8 -9 -14 -19 -13 -23 2 -23 14 0 20 9 3 17 5 18 6 0 0 1 -5 1 -13z
m-917 -36 c0 -5 -2 -10 -4 -10 -3 0 -8 5 -11 10 -3 6 -1 10 4 10 6 0 11 -4 11
-10z m1080 -10 c0 -5 -5 -10 -11 -10 -5 0 -7 5 -4 10 3 6 8 10 11 10 2 0 4 -4
4 -10z m410 -10 c0 -5 -2 -10 -4 -10 -3 0 -8 5 -11 10 -3 6 -1 10 4 10 6 0 11
-4 11 -10z m2496 -6 c-3 -9 -6 -20 -6 -25 0 -17 -17 -1 -23 21 -4 15 0 20 15
20 14 0 18 -5 14 -16z m-397 -33 c22 -22 17 -35 -9 -21 -10 5 -20 7 -22 4 -3
-2 -18 1 -34 7 -27 10 -27 12 -9 19 33 14 54 11 74 -9z m-3578 -14 c-10 -9
-11 -8 -5 6 3 10 9 15 12 12 3 -3 0 -11 -7 -18z m42 -31 c-22 -12 -39 8 -22
27 12 12 15 12 26 -2 9 -13 8 -18 -4 -25z m167 30 c0 -3 -4 -8 -10 -11 -5 -3
-10 -1 -10 4 0 6 5 11 10 11 6 0 10 -2 10 -4z m2048 -13 c-10 -2 -28 -2 -40 0
-13 2 -5 4 17 4 22 1 32 -1 23 -4z m1307 -43 c-3 -4 -21 -11 -40 -14 -20 -4
-35 -13 -35 -21 0 -7 -6 -16 -12 -18 -8 -3 -6 -6 5 -6 9 -1 17 6 17 14 0 8 5
15 11 15 6 0 9 -9 6 -20 -3 -13 3 -24 19 -35 26 -17 33 -38 9 -29 -11 5 -13 2
-8 -12 4 -10 2 -15 -3 -11 -6 3 -9 -7 -8 -24 2 -24 -3 -30 -23 -35 -16 -4 -21
-9 -13 -14 8 -5 7 -9 -5 -14 -14 -5 -15 -9 -5 -21 10 -12 10 -15 -2 -15 -19 0
-53 74 -43 91 5 7 4 10 -3 5 -14 -8 -25 28 -17 57 6 20 5 21 -8 5 -18 -22 -31
-23 -23 -2 3 8 2 12 -4 9 -6 -3 -10 1 -10 9 0 9 6 13 14 10 11 -4 13 0 9 15
-3 12 -10 21 -15 21 -19 0 -1 25 18 25 22 1 92 34 113 53 11 11 18 9 37 -9 13
-12 21 -25 19 -29z m-3556 27 c15 -19 2 -29 -15 -12 -8 7 -14 16 -14 19 0 11
17 6 29 -7z m1586 2 c11 -16 -1 -22 -30 -15 -14 4 -23 11 -20 16 8 13 42 13
50 -1z m2219 -20 c-18 -7 -18 -8 4 -15 24 -7 30 -30 10 -37 -10 -3 -9 -8 2
-22 14 -17 13 -18 -3 -12 -10 4 -21 7 -23 7 -2 0 -4 9 -4 20 0 11 -4 20 -10
20 -5 0 -10 -4 -10 -10 0 -5 -5 -10 -11 -10 -5 0 -8 4 -5 9 4 5 3 11 -1 14 -5
2 -3 3 4 1 6 -1 16 10 23 26 8 20 17 27 28 23 13 -6 13 -8 -4 -14z m-2201 -46
c-8 -19 -22 -16 -18 5 2 9 4 22 4 27 1 6 5 4 10 -4 5 -8 7 -20 4 -28z m2034
12 c-8 -8 -16 -10 -22 -4 -6 7 -5 13 5 19 20 12 32 2 17 -15z m26 -10 c-3 -9
-8 -14 -10 -11 -3 3 -2 9 2 15 9 16 15 13 8 -4z m-1348 -5 c-3 -5 -23 -10 -43
-9 -30 0 -33 2 -17 9 28 12 67 12 60 0z m1235 -6 c0 -2 -7 -4 -15 -4 -8 0 -15
4 -15 10 0 5 7 7 15 4 8 -4 15 -8 15 -10z m40 2 c-7 -7 -14 -6 -21 1 -9 9 -7
12 9 10 14 -1 18 -5 12 -11z m-5 -36 c-3 -5 -12 -10 -18 -10 -7 0 -6 4 3 10
19 12 23 12 15 0z m33 -4 c-7 -8 -15 -12 -17 -11 -5 6 10 25 20 25 5 0 4 -6
-3 -14z m-308 -6 c0 -5 -5 -10 -11 -10 -5 0 -7 5 -4 10 3 6 8 10 11 10 2 0 4
-4 4 -10z m-1600 -20 c0 -5 -10 -10 -22 -10 -19 0 -20 2 -8 10 19 13 30 13 30
0z m1893 -8 c4 8 6 7 6 -4 1 -20 0 -21 -23 -12 -9 3 -16 11 -16 16 0 6 6 6 14
-1 11 -9 15 -9 19 1z m-300 -37 c-7 -21 -13 -19 -13 6 0 11 4 18 10 14 5 -3 7
-12 3 -20z m91 -6 c-2 -4 2 -9 8 -12 7 -3 -1 -4 -19 -3 -18 1 -36 6 -40 11 -4
4 -2 5 5 1 6 -4 12 -3 12 3 0 5 9 9 19 8 11 0 18 -4 15 -8z m-1509 -29 c8 -13
-15 -13 -35 0 -12 8 -11 10 7 10 12 0 25 -4 28 -10z m1822 -6 c-3 -3 -12 -4
-19 -1 -8 3 -5 6 6 6 11 1 17 -2 13 -5z m-297 -14 c0 -5 -7 -7 -15 -4 -8 4
-15 8 -15 10 0 2 7 4 15 4 8 0 15 -4 15 -10z m-196 -26 c14 -15 26 -32 26 -38
0 -6 -5 -4 -10 4 -8 13 -10 12 -10 -2 0 -10 5 -18 11 -18 5 0 7 -5 3 -12 -5
-8 -12 -1 -21 20 -7 18 -20 32 -28 32 -8 0 -15 9 -15 20 0 27 12 25 44 -6z
m526 5 c0 -6 -4 -7 -10 -4 -5 3 -10 11 -10 16 0 6 5 7 10 4 6 -3 10 -11 10
-16z m-612 -10 c17 -6 33 -17 36 -25 3 -9 11 -12 17 -8 7 4 10 1 7 -7 -6 -20
-69 -48 -93 -42 -44 11 -60 9 -72 -6 -6 -9 -14 -14 -17 -11 -8 9 5 50 14 45 5
-3 11 4 15 15 3 11 11 20 16 20 6 0 7 5 3 12 -5 8 -2 9 9 5 10 -3 17 -2 17 3
0 13 10 13 48 -1z m278 -3 c10 -11 11 -17 3 -22 -6 -3 -15 0 -20 7 -18 29 -7
39 17 15z m-1252 -82 c3 -8 2 -12 -4 -9 -6 3 -10 10 -10 16 0 14 7 11 14 -7z
m-1929 -4 c3 -5 -1 -10 -9 -10 -9 0 -16 5 -16 10 0 6 4 10 9 10 6 0 13 -4 16
-10z m565 0 c0 -5 -7 -10 -15 -10 -8 0 -15 5 -15 10 0 6 7 10 15 10 8 0 15 -4
15 -10z m2270 -19 c0 -5 -7 -11 -15 -15 -15 -5 -20 5 -8 17 9 10 23 9 23 -2z
m586 -5 c18 5 18 5 1 -6 -20 -13 -47 -7 -47 11 0 9 3 9 14 0 7 -6 22 -9 32 -5z
m119 4 c3 -5 1 -10 -4 -10 -6 0 -11 5 -11 10 0 6 2 10 4 10 3 0 8 -4 11 -10z
m-1055 -4 c0 -3 -4 -8 -10 -11 -5 -3 -10 -1 -10 4 0 6 5 11 10 11 6 0 10 -2
10 -4z m800 -10 c0 -11 -19 -15 -25 -6 -3 5 1 10 9 10 9 0 16 -2 16 -4z m-410
-17 c0 -5 5 -7 12 -3 7 4 8 3 4 -4 -4 -6 -13 -9 -21 -5 -17 6 -20 23 -5 23 6
0 10 -5 10 -11z m-2530 -3 c0 -3 -4 -8 -10 -11 -5 -3 -10 -1 -10 4 0 6 5 11
10 11 6 0 10 -2 10 -4z m1510 -6 c0 -5 -4 -10 -10 -10 -5 0 -10 5 -10 10 0 6
5 10 10 10 6 0 10 -4 10 -10z m886 -2 c4 -7 3 -8 -4 -4 -7 4 -12 2 -12 -4 0
-6 -5 -8 -11 -4 -8 4 -7 9 2 15 18 11 17 11 25 -3z m754 2 c0 -5 -5 -10 -11
-10 -5 0 -7 5 -4 10 3 6 8 10 11 10 2 0 4 -4 4 -10z m-3115 -10 c-3 -5 -11
-10 -16 -10 -6 0 -7 5 -4 10 3 6 11 10 16 10 6 0 7 -4 4 -10z m2789 -9 c3 -5
-1 -11 -9 -14 -9 -4 -12 -1 -8 9 6 16 10 17 17 5z m-2756 -29 c2 -12 -1 -22
-7 -22 -6 0 -11 4 -11 10 0 5 -6 7 -14 4 -8 -3 -17 -1 -21 5 -3 7 0 8 9 5 11
-4 16 0 16 11 0 24 24 13 28 -13z m905 22 c-7 -3 -9 -12 -6 -20 3 -8 -1 -14
-11 -14 -9 0 -16 6 -16 13 0 18 10 27 29 26 10 0 11 -3 4 -5z m1557 -25 c0
-14 -16 -11 -29 5 -10 12 -8 13 8 9 12 -3 21 -9 21 -14z m-2379 -49 c-13 -11
-28 -17 -32 -14 -15 9 -10 21 11 27 14 4 18 10 14 24 -7 17 -6 17 11 1 18 -17
18 -18 -4 -38z m89 30 c-19 -13 -30 -13 -30 0 0 6 10 10 23 10 18 0 19 -2 7
-10z m2360 0 c0 -5 -5 -10 -11 -10 -5 0 -7 5 -4 10 3 6 8 10 11 10 2 0 4 -4 4
-10z m-2505 -20 c-3 -5 -10 -10 -16 -10 -5 0 -9 5 -9 10 0 6 7 10 16 10 8 0
12 -4 9 -10z m168 -4 c4 -10 1 -13 -9 -9 -8 3 -14 -1 -14 -9 0 -23 -33 -48
-49 -39 -11 7 -9 10 8 16 12 4 21 15 21 26 0 11 4 18 9 14 5 -3 12 -1 16 5 8
13 12 13 18 -4z m-53 -17 c0 -5 -4 -9 -10 -9 -5 0 -10 7 -10 16 0 8 5 12 10 9
6 -3 10 -10 10 -16z m2190 -4 c0 -15 6 -25 14 -25 8 0 17 -6 19 -12 3 -7 6 -3
6 10 1 15 -3 21 -11 16 -7 -4 -8 -3 -4 4 4 6 13 9 21 6 8 -4 12 -11 8 -18 -4
-6 1 -5 10 3 23 18 34 7 13 -14 -12 -13 -13 -19 -3 -30 6 -7 15 -11 19 -9 4 2
9 0 13 -5 6 -10 -17 -8 -49 5 -14 5 -17 4 -12 -4 7 -11 -10 -17 -41 -13 -7 1
-9 -7 -6 -19 3 -11 0 -20 -6 -20 -6 0 -11 4 -11 8 0 11 -39 12 -45 1 -10 -15
-25 -10 -19 6 3 8 9 14 12 13 34 -4 44 17 12 25 -11 3 -20 1 -20 -5 0 -5 -4
-6 -10 -3 -5 3 -7 0 -4 -8 5 -15 -22 -17 -45 -3 -11 7 -11 10 0 17 10 6 11 9
2 9 -7 0 -13 4 -13 8 0 5 13 7 29 4 16 -2 32 1 36 9 6 8 4 11 -6 7 -8 -3 -22
0 -32 7 -14 10 -15 14 -2 31 13 18 14 18 9 -6 -3 -14 -2 -21 3 -15 4 6 22 10
38 9 35 -1 75 21 53 29 -9 4 -7 6 5 6 12 1 17 -7 17 -24z m-320 5 c0 -5 -4
-10 -10 -10 -5 0 -10 5 -10 10 0 6 5 10 10 10 6 0 10 -4 10 -10z m170 -4 c0
-14 -21 -26 -46 -26 -8 0 -14 5 -14 11 0 5 5 7 10 4 6 -3 13 1 16 9 8 20 34
21 34 2z m400 4 c0 -5 -2 -10 -4 -10 -3 0 -8 5 -11 10 -3 6 -1 10 4 10 6 0 11
-4 11 -10z m-2307 -21 c-8 -8 -13 -7 -18 2 -5 8 -4 10 3 5 7 -4 12 -2 12 5 0
7 3 9 7 6 4 -4 2 -12 -4 -18z m158 -32 c-9 -23 -14 -25 -34 -18 -20 8 -24 6
-23 -7 0 -9 -5 -16 -13 -14 -7 1 -19 -3 -27 -9 -25 -21 -15 1 13 27 14 13 31
23 37 21 6 -2 19 5 30 15 25 22 29 18 17 -15z m1629 12 c0 -6 -4 -7 -10 -4 -5
3 -10 11 -10 16 0 6 5 7 10 4 6 -3 10 -11 10 -16z m-1810 7 c0 -3 -4 -8 -10
-11 -5 -3 -10 -1 -10 4 0 6 5 11 10 11 6 0 10 -2 10 -4z m550 0 c0 -3 -4 -8
-10 -11 -5 -3 -10 -1 -10 4 0 6 5 11 10 11 6 0 10 -2 10 -4z m1300 -6 c0 -5
-5 -10 -11 -10 -5 0 -7 5 -4 10 3 6 8 10 11 10 2 0 4 -4 4 -10z m400 -6 c0
-14 -3 -14 -15 -4 -8 7 -15 14 -15 16 0 2 7 4 15 4 8 0 15 -7 15 -16z m-460
-20 c0 -8 6 -11 17 -7 11 4 14 3 9 -5 -5 -8 0 -12 13 -12 11 0 22 -4 26 -9 9
-15 -14 -24 -30 -11 -9 8 -15 8 -20 0 -3 -6 -11 -7 -17 -4 -6 4 -8 2 -4 -4 3
-6 2 -13 -3 -16 -5 -3 -12 1 -15 10 -3 8 -9 13 -14 10 -4 -2 -9 7 -10 20 -1
14 5 27 13 30 8 4 12 10 9 15 -3 5 2 6 10 3 9 -3 16 -12 16 -20z m-1783 -3 c1
-11 -5 -22 -13 -25 -8 -3 -13 -2 -11 2 2 4 7 15 10 25 8 22 12 22 14 -2z m35
-33 c-6 -6 -15 -8 -19 -3 -5 4 -2 10 5 12 10 4 10 8 0 21 -10 14 -9 14 7 0 15
-14 16 -21 7 -30z m1658 32 c0 -5 -5 -10 -11 -10 -5 0 -7 5 -4 10 3 6 8 10 11
10 2 0 4 -4 4 -10z m190 -15 c0 -7 5 -16 10 -18 6 -3 5 -4 -1 -3 -7 1 -16 12
-20 25 -6 14 -5 20 1 16 6 -3 10 -12 10 -20z m-2175 -5 c3 -5 1 -10 -4 -10 -6
0 -11 5 -11 10 0 6 2 10 4 10 3 0 8 -4 11 -10z m2447 -40 c-17 -30 -48 -45
-58 -29 -3 5 2 9 10 9 24 0 19 19 -6 30 -13 5 -17 10 -10 11 6 1 16 2 21 3 5
0 12 4 16 7 3 4 14 5 25 2 17 -5 17 -6 2 -33z m-1977 20 c3 -5 -1 -10 -9 -10
-9 0 -16 5 -16 10 0 6 4 10 9 10 6 0 13 -4 16 -10z m1152 -16 c-3 -3 -12 -4
-19 -1 -8 3 -5 6 6 6 11 1 17 -2 13 -5z m-659 -39 c-3 -3 -9 2 -12 12 -6 14
-5 15 5 6 7 -7 10 -15 7 -18z m155 12 c28 1 37 -3 37 -16 0 -19 -40 -24 -52
-7 -9 14 -38 -24 -31 -41 4 -9 0 -11 -13 -7 -34 13 -37 17 -19 30 18 13 18 14
-1 35 l-19 22 30 -8 c17 -5 47 -8 68 -8z m1177 3 c0 -5 -5 -10 -11 -10 -5 0
-7 5 -4 10 3 6 8 10 11 10 2 0 4 -4 4 -10z m-718 -22 c-7 -7 -12 -8 -12 -2 0
14 12 26 19 19 2 -3 -1 -11 -7 -17z m-572 -20 c0 -19 -2 -20 -10 -8 -13 19
-13 30 0 30 6 0 10 -10 10 -22z m900 7 c0 -8 -6 -15 -14 -15 -20 0 -29 17 -14
23 22 9 28 7 28 -8z m-1210 1 c0 -3 -4 -8 -10 -11 -5 -3 -10 -1 -10 4 0 6 5
11 10 11 6 0 10 -2 10 -4z m1260 -26 c-18 -11 -22 -7 -14 14 5 13 10 14 18 6
8 -8 7 -13 -4 -20z m-327 13 c8 -7 -11 -33 -25 -33 -5 0 -6 5 -3 10 6 9 -8 14
-28 11 -5 -1 -6 3 -2 9 7 11 48 14 58 3z m-508 -14 c10 -14 1 -21 -19 -13 -9
3 -13 10 -10 15 7 12 21 11 29 -2z m-725 -25 c0 -12 -4 -12 -20 -4 -11 6 -18
15 -15 20 8 13 35 0 35 -16z m540 -5 c0 -5 -7 -9 -15 -9 -9 0 -12 6 -9 15 6
15 24 11 24 -6z m165 -9 c-3 -4 -15 -6 -27 -2 -21 5 -21 6 -2 12 21 8 37 3 29
-10z m393 3 c-6 -7 -8 -17 -4 -20 4 -4 11 -1 16 7 7 11 10 12 10 2 0 -7 5 -10
10 -7 6 3 10 1 10 -4 0 -6 -7 -11 -15 -11 -19 0 -20 -29 -1 -36 7 -3 13 -15
12 -27 -1 -17 -8 -22 -33 -23 -22 -1 -33 3 -33 12 0 8 7 14 16 14 8 0 12 5 9
10 -5 8 -11 7 -21 -1 -16 -13 -64 -4 -64 12 0 6 7 8 16 5 13 -5 14 -4 6 7 -9
10 -8 22 0 45 10 27 17 31 45 30 26 -1 31 -4 21 -15z m872 7 c0 -5 -4 -10 -10
-10 -5 0 -10 5 -10 10 0 6 5 10 10 10 6 0 10 -4 10 -10z m-1030 -10 c0 -5 -4
-10 -10 -10 -5 0 -10 5 -10 10 0 6 5 10 10 10 6 0 10 -4 10 -10z m350 0 c0 -5
-5 -10 -11 -10 -5 0 -7 5 -4 10 3 6 8 10 11 10 2 0 4 -4 4 -10z m-310 -10 c0
-5 -7 -7 -15 -4 -8 4 -15 8 -15 10 0 2 7 4 15 4 8 0 15 -4 15 -10z m-557 -37
c3 -16 4 -29 3 -31 -2 -1 -17 4 -34 11 -31 13 -32 28 -2 40 25 9 27 8 33 -20z
m774 11 c-3 -3 -12 -4 -19 -1 -8 3 -5 6 6 6 11 1 17 -2 13 -5z m968 -22 c-7
-8 -35 7 -35 18 0 6 7 6 20 -2 10 -7 17 -14 15 -16z m-2027 1 c-2 -9 -8 -18
-15 -20 -7 -3 -9 3 -6 16 6 25 26 28 21 4z m1017 7 c-3 -5 -14 -10 -23 -9 -14
0 -13 2 3 9 27 11 27 11 20 0z m80 -10 c3 -5 1 -10 -4 -10 -6 0 -11 5 -11 10
0 6 2 10 4 10 3 0 8 -4 11 -10z m-1073 -7 c-10 -4 -10 -8 -1 -19 8 -9 8 -14 1
-14 -15 0 -25 18 -17 30 3 6 12 10 18 9 8 0 8 -2 -1 -6z m383 -3 c3 -5 1 -10
-4 -10 -6 0 -11 5 -11 10 0 6 2 10 4 10 3 0 8 -4 11 -10z m635 6 c0 -3 -4 -8
-10 -11 -5 -3 -10 -1 -10 4 0 6 5 11 10 11 6 0 10 -2 10 -4z m-2080 -16 c0 -5
-4 -10 -10 -10 -5 0 -10 5 -10 10 0 6 5 10 10 10 6 0 10 -4 10 -10z m1290 0
c0 -5 -4 -10 -10 -10 -5 0 -10 5 -10 10 0 6 5 10 10 10 6 0 10 -4 10 -10z
m604 -24 c-6 -15 -24 -23 -24 -11 0 8 24 34 28 30 1 -1 0 -10 -4 -19z m216 14
c0 -5 -4 -10 -10 -10 -5 0 -10 5 -10 10 0 6 5 10 10 10 6 0 10 -4 10 -10z"/>
<path d="M1518 2503 c7 -3 16 -2 19 1 4 3 -2 6 -13 5 -11 0 -14 -3 -6 -6z"/>
<path d="M1070 2033 c0 -13 5 -23 10 -23 13 0 13 11 0 30 -8 12 -10 11 -10 -7z"/>
<path d="M1037 1959 c7 -7 15 -10 18 -7 3 3 -2 9 -12 12 -14 6 -15 5 -6 -5z"/>
<path d="M1488 2343 c6 -2 18 -2 25 0 6 3 1 5 -13 5 -14 0 -19 -2 -12 -5z"/>
<path d="M2305 1690 c-3 -5 -1 -10 4 -10 6 0 11 5 11 10 0 6 -2 10 -4 10 -3 0
-8 -4 -11 -10z"/>
<path d="M2451 1691 c-7 -5 -12 -14 -10 -20 2 -6 10 -2 17 9 14 22 13 23 -7
11z"/>
<path d="M2470 1670 c0 -5 5 -10 10 -10 6 0 10 5 10 10 0 6 -4 10 -10 10 -5 0
-10 -4 -10 -10z"/>
<path d="M2516 1633 c5 -5 12 -12 16 -18 4 -6 8 -2 8 8 0 9 -7 17 -17 17 -9 0
-12 -3 -7 -7z"/>
<path d="M2207 1540 c3 -11 9 -17 15 -14 5 3 4 12 -3 20 -16 19 -18 18 -12 -6z"/>
<path d="M892 1591 c-8 -4 -25 -6 -40 -4 -20 3 -23 2 -13 -5 19 -14 84 -2 70
12 -3 3 -10 1 -17 -3z"/>
<path d="M920 1531 c0 -7 -4 -9 -10 -6 -5 3 -10 2 -10 -3 0 -14 32 -24 42 -14
5 5 2 14 -7 22 -11 9 -15 9 -15 1z"/>
<path d="M1025 1400 c3 -5 8 -10 11 -10 2 0 4 5 4 10 0 6 -5 10 -11 10 -5 0
-7 -4 -4 -10z"/>
<path d="M3680 910 c0 -5 5 -10 11 -10 5 0 7 5 4 10 -3 6 -8 10 -11 10 -2 0
-4 -4 -4 -10z"/>
<path d="M3597 816 c-4 -10 -1 -13 8 -9 8 3 12 9 9 14 -7 12 -11 11 -17 -5z"/>
<path d="M3605 790 c-3 -6 1 -7 9 -4 18 7 21 14 7 14 -6 0 -13 -4 -16 -10z"/>
<path d="M3585 760 c3 -5 14 -10 23 -10 15 0 15 2 2 10 -20 13 -33 13 -25 0z"/>
<path d="M3615 680 c3 -5 8 -10 11 -10 2 0 4 5 4 10 0 6 -5 10 -11 10 -5 0 -7
-4 -4 -10z"/>
<path d="M3083 345 c0 -8 4 -12 9 -9 4 3 8 9 8 15 0 5 -4 9 -8 9 -5 0 -9 -7
-9 -15z"/>
<path d="M1607 24 c-10 -11 3 -24 23 -24 14 0 18 5 13 17 -4 11 -8 12 -11 5
-2 -7 -8 -12 -13 -12 -6 0 -7 5 -4 10 7 11 2 13 -8 4z"/>
</g>
</svg>
