<?xml version="1.0" standalone="no"?>
<!DOCTYPE svg PUBLIC "-//W3C//DTD SVG 20010904//EN"
 "http://www.w3.org/TR/2001/REC-SVG-20010904/DTD/svg10.dtd">
<svg version="1.0" xmlns="http://www.w3.org/2000/svg"
 width="473.000000pt" height="257.000000pt" viewBox="0 0 473.000000 257.000000"
 preserveAspectRatio="xMidYMid meet">

<g transform="translate(0.000000,257.000000) scale(0.100000,-0.100000)"
fill="#000000" stroke="none">
<path d="M0 1285 l0 -1285 1694 0 c1535 0 1694 1 1700 16 10 25 7 66 -4 59 -6
-3 -13 1 -16 9 -7 17 26 77 38 70 15 -9 8 31 -9 56 -25 36 -40 50 -47 43 -3
-4 -6 3 -6 15 0 11 -5 33 -11 49 -7 15 -13 39 -15 53 -8 59 -14 71 -34 65 -12
-4 -20 -2 -20 5 0 6 5 8 10 5 6 -3 10 -1 10 5 0 6 -14 19 -30 28 -17 9 -28 22
-26 28 2 6 -19 23 -47 37 -50 25 -51 27 -21 27 83 0 232 -118 285 -227 31 -64
40 -228 15 -287 -9 -21 -16 -42 -16 -47 0 -5 279 -9 640 -9 l640 0 0 1285 0
1285 -2365 0 -2365 0 0 -1285z m2414 710 c57 5 64 4 86 -20 13 -14 33 -25 46
-25 12 0 27 -6 33 -14 7 -8 26 -18 42 -21 32 -7 50 -25 25 -25 -29 0 -17 -19
24 -39 26 -12 40 -15 40 -8 0 7 6 5 13 -4 9 -12 30 -16 92 -16 126 0 246 -11
261 -24 8 -6 28 -9 44 -7 23 3 30 1 26 -9 -4 -9 3 -13 19 -13 14 0 25 -4 25
-10 0 -5 -6 -10 -14 -10 -8 0 -16 -7 -20 -15 -3 -8 -12 -15 -19 -15 -8 0 -24
-9 -36 -19 -12 -11 -40 -22 -62 -26 -27 -5 -39 -12 -39 -23 0 -11 -3 -13 -8
-5 -5 8 -17 8 -47 -3 -22 -7 -48 -14 -57 -14 -12 0 -15 -5 -11 -17 5 -13 2
-15 -11 -10 -9 4 -15 3 -12 -2 8 -13 -16 -20 -46 -14 -15 3 -34 0 -45 -6 -17
-10 -17 -10 0 -11 9 0 17 -4 17 -10 0 -11 -23 -12 -60 -1 -25 8 -80 -11 -80
-28 0 -7 -60 -22 -83 -20 -5 1 -21 -10 -35 -24 -28 -26 -92 -42 -92 -23 0 25
-20 -21 -21 -49 -1 -30 -1 -30 -11 6 -8 31 -13 35 -34 31 -29 -5 -115 17 -127
32 -5 6 -6 -1 -3 -16 5 -21 3 -28 -8 -28 -21 0 -40 37 -23 43 6 3 -3 6 -20 6
-18 1 -33 -4 -33 -10 0 -6 -7 -9 -16 -7 -23 5 -18 22 8 30 18 5 15 6 -14 7
-24 1 -38 -4 -38 -11 0 -8 -13 -13 -31 -14 -20 -1 -28 3 -25 11 3 9 -9 11 -41
9 -25 -2 -48 -6 -50 -8 -3 -2 -20 2 -40 10 -24 11 -39 12 -47 5 -15 -12 -84
-12 -92 1 -3 4 -14 8 -25 8 -11 0 -18 4 -15 9 3 5 -1 12 -9 15 -12 4 -14 0
-10 -22 l6 -27 -17 30 c-15 26 -18 27 -24 11 -5 -14 -8 -10 -17 19 -10 31 -9
36 3 31 8 -3 14 1 14 9 0 8 3 15 8 15 4 0 20 12 35 26 27 25 43 32 80 33 11 1
15 6 11 12 -4 8 0 8 15 0 15 -8 21 -8 21 -1 0 6 6 10 13 9 41 -5 49 1 42 34
-9 41 -11 43 -32 26 -10 -8 -31 -16 -48 -18 -16 -2 -38 -7 -47 -12 -22 -12
-41 -11 -33 1 4 6 -17 10 -54 10 -34 0 -61 -4 -61 -10 0 -5 -15 -10 -32 -10
-26 1 -30 3 -16 10 9 6 19 24 23 40 4 17 11 30 16 30 6 0 7 5 3 12 -5 8 -2 9
9 5 10 -4 21 1 27 11 9 13 12 14 17 3 4 -10 7 -10 13 -2 4 7 18 13 31 14 13 1
35 10 49 19 38 24 74 33 68 17 -4 -10 4 -14 28 -15 22 0 34 4 34 13 0 7 6 13
14 13 17 0 38 -24 29 -34 -4 -3 7 -3 24 0 18 3 33 1 37 -5 6 -9 23 -9 121 4
13 1 19 9 17 20 -4 22 26 55 50 55 10 0 21 7 24 15 4 8 12 15 19 15 7 0 18 7
25 15 7 8 27 17 46 21 31 6 34 9 35 43 l1 36 10 -38 10 -38 62 6z m820 2 c9
-8 16 -20 16 -25 0 -5 15 -17 33 -25 28 -14 32 -14 35 -1 2 8 7 12 12 9 13 -8
0 -35 -17 -35 -8 0 -11 -4 -8 -10 3 -5 -3 -10 -14 -10 -12 0 -21 -4 -21 -10 0
-5 21 -10 48 -10 26 0 63 -3 83 -6 26 -4 40 -2 52 11 18 18 39 12 31 -9 -3 -9
-34 -13 -107 -15 -104 -2 -161 -13 -185 -38 -16 -16 -29 -17 -37 -3 -5 8 -11
7 -21 -1 -11 -9 -14 -8 -14 5 0 9 -8 17 -17 18 -10 1 -25 2 -33 4 -8 1 -37 2
-64 3 -39 1 -47 4 -38 13 21 21 13 38 -17 38 -17 0 -32 4 -35 9 -4 5 3 7 14 4
11 -3 20 0 20 6 0 5 6 8 13 5 15 -5 87 53 87 71 0 7 15 12 36 13 20 1 40 4 43
8 11 11 89 -3 105 -19z m851 -79 c14 -6 25 -15 25 -20 0 -4 6 -8 14 -8 23 0
68 -27 57 -34 -5 -4 -8 -13 -4 -21 3 -8 0 -15 -6 -15 -6 0 -11 5 -11 10 0 15
-21 12 -42 -7 -22 -20 -24 -49 -3 -57 8 -3 15 -10 15 -15 0 -10 -52 -7 -70 4
-6 4 -18 -3 -28 -14 l-17 -21 -20 30 c-11 16 -26 30 -34 30 -11 0 -11 3 -1 15
7 8 16 13 20 10 4 -3 10 11 12 31 3 24 -1 38 -10 43 -16 9 -14 11 36 37 33 17
35 17 67 2z m-1201 -13 c-7 -17 -20 -20 -29 -6 -3 5 3 12 12 14 10 3 19 5 20
6 1 0 0 -6 -3 -14z m-144 -35 c0 -5 -4 -10 -10 -10 -5 0 -10 5 -10 10 0 6 5
10 10 10 6 0 10 -4 10 -10z m840 -4 c0 -3 -4 -8 -10 -11 -5 -3 -10 -1 -10 4 0
6 5 11 10 11 6 0 10 -2 10 -4z m-647 -13 c-7 -2 -19 -2 -25 0 -7 3 -2 5 12 5
14 0 19 -2 13 -5z m862 -3 c3 -5 -1 -10 -10 -10 -9 0 -13 5 -10 10 3 6 8 10
10 10 2 0 7 -4 10 -10z m445 -70 c0 -5 -4 -10 -10 -10 -5 0 -10 5 -10 10 0 6
5 10 10 10 6 0 10 -4 10 -10z m-3194 -61 c3 -6 17 -9 30 -6 14 2 25 -1 28 -9
3 -8 14 -14 25 -14 10 0 21 -7 25 -15 4 -12 15 -14 46 -9 35 6 39 4 34 -10 -5
-14 -36 -21 -71 -17 -7 1 -22 -3 -34 -9 l-21 -12 23 -24 c15 -16 30 -22 43
-19 12 3 5 -3 -14 -11 -19 -9 -29 -19 -22 -21 7 -3 -4 -13 -25 -24 -42 -22
-46 -23 -38 -10 12 20 -15 20 -81 0 -98 -29 -114 -32 -73 -11 20 10 56 34 79
55 l43 37 -49 0 -49 1 27 17 c19 11 26 22 22 34 -3 10 4 26 15 37 12 12 18 27
15 36 -7 17 11 21 22 4z m296 -51 c-6 -6 -15 -8 -19 -4 -4 4 -1 11 7 16 19 12
27 3 12 -12z m63 12 c-3 -5 -10 -10 -16 -10 -5 0 -9 5 -9 10 0 6 7 10 16 10 8
0 12 -4 9 -10z m2465 -100 c0 -5 -4 -10 -10 -10 -5 0 -10 5 -10 10 0 6 5 10
10 10 6 0 10 -4 10 -10z m-2950 -60 c0 -5 -7 -10 -16 -10 -8 0 -12 5 -9 10 3
6 10 10 16 10 5 0 9 -4 9 -10z m2751 -54 c16 -20 19 -33 13 -54 -4 -15 -8 -31
-8 -37 -1 -15 -35 -18 -65 -5 -22 9 -28 18 -29 46 -1 19 3 45 8 59 12 32 52
28 81 -9z m152 19 c22 -16 19 -47 -5 -51 -24 -3 -38 18 -31 44 6 25 11 26 36
7z m189 -10 c0 -5 -5 -11 -11 -13 -6 -2 -11 4 -11 13 0 9 5 15 11 13 6 -2 11
-8 11 -13z m-652 -55 c15 -15 16 -20 6 -20 -8 0 -16 -6 -19 -12 -3 -10 -8 -10
-18 1 -10 10 -11 15 -2 18 7 2 9 11 6 19 -7 20 4 17 27 -6z m880 -25 c0 -8 -4
-15 -9 -15 -13 0 -22 16 -14 24 11 11 23 6 23 -9z m-3610 -11 c0 -14 -32 -35
-45 -30 -26 10 -16 32 15 34 17 1 30 0 30 -4z m3113 -29 c1 -5 -6 -11 -15 -13
-11 -2 -18 3 -18 13 0 17 30 18 33 0z m-332 -28 c-8 -8 -11 -7 -11 4 0 20 13
34 18 19 3 -7 -1 -17 -7 -23z m-422 11 c11 -10 14 -10 18 0 6 16 22 15 57 -3
16 -9 40 -16 53 -17 21 -2 28 -17 24 -54 -2 -20 61 -3 67 18 2 11 12 18 21 16
22 -4 21 -33 -1 -32 -10 1 -18 -2 -18 -6 0 -5 -9 -12 -20 -15 -24 -7 -27 -35
-4 -35 9 0 -7 -21 -38 -50 -29 -27 -57 -50 -61 -50 -4 0 -23 -17 -42 -37 -29
-32 -39 -36 -75 -35 -26 1 -47 -4 -57 -14 -17 -16 -54 -16 -54 1 0 6 8 12 18
13 24 5 63 42 63 59 0 20 -23 40 -39 35 -8 -3 -11 0 -7 7 4 6 2 9 -7 5 -15 -5
-31 22 -21 37 3 5 -5 9 -18 10 -23 0 -23 0 2 11 14 6 28 10 33 10 4 -1 7 9 7
23 0 32 32 94 48 95 7 0 10 5 7 10 -9 14 29 12 44 -2z m-109 -28 c0 -11 -7
-20 -16 -20 -8 0 -12 -4 -9 -10 3 -5 -1 -10 -9 -10 -20 0 -20 10 0 38 19 27
34 28 34 2z m-2305 0 c3 -5 1 -10 -4 -10 -6 0 -11 5 -11 10 0 6 2 10 4 10 3 0
8 -4 11 -10z m3823 -7 c5 -18 -23 -16 -39 3 -11 14 -10 15 11 12 13 -1 25 -9
28 -15z m-3828 -38 c0 -7 -19 -22 -42 -34 -35 -17 -38 -21 -22 -27 10 -3 28
-9 39 -14 51 -20 105 -32 119 -27 10 4 16 1 16 -7 0 -8 7 -16 15 -20 8 -3 12
-12 9 -21 -3 -8 -10 -12 -15 -9 -6 3 -7 -5 -3 -22 4 -17 3 -25 -3 -21 -5 3
-22 -13 -36 -36 -15 -24 -36 -49 -47 -57 -11 -8 -20 -22 -20 -31 0 -9 -9 -19
-19 -22 -13 -3 -18 0 -15 8 9 22 -18 30 -32 10 -8 -10 -17 -15 -21 -10 -5 4
-2 10 5 12 6 3 12 9 12 13 0 11 -43 9 -51 -3 -4 -5 -15 -4 -27 2 -11 6 -29 11
-39 11 -26 1 -61 78 -42 92 10 7 8 7 -8 3 -32 -9 -29 0 10 24 17 11 26 21 20
21 -23 0 -14 26 13 39 16 7 24 17 21 25 -3 8 -3 17 1 21 4 4 8 11 8 16 1 5 2
14 3 19 0 6 10 10 22 10 11 0 17 5 14 10 -3 6 -3 15 1 21 4 8 9 7 15 -2 7 -11
9 -10 9 4 0 13 5 17 19 12 10 -3 24 1 31 10 10 12 16 13 26 4 8 -6 14 -17 14
-24z m2608 17 c6 -18 -15 -14 -22 4 -4 10 -1 14 6 12 6 -2 14 -10 16 -16z
m162 -14 c0 -5 4 -7 9 -3 13 8 41 -23 41 -45 0 -24 -26 -39 -54 -32 -27 7 -47
27 -38 37 4 5 -1 5 -10 2 -10 -4 -18 -2 -18 3 0 6 5 10 11 10 6 0 9 7 5 15 -3
8 2 19 11 24 19 10 43 4 43 -11z m1271 -21 c-1 -12 -15 -9 -19 4 -3 6 1 10 8
8 6 -3 11 -8 11 -12z m-1107 -11 l40 -14 -30 -5 c-16 -3 -43 -6 -61 -6 -29 0
-31 2 -20 20 14 23 20 23 71 5z m-2894 -36 c0 -5 -4 -10 -10 -10 -5 0 -10 5
-10 10 0 6 5 10 10 10 6 0 10 -4 10 -10z m150 -40 c0 -5 -4 -10 -10 -10 -5 0
-10 5 -10 10 0 6 5 10 10 10 6 0 10 -4 10 -10z m2444 -5 c-7 -17 -20 -20 -28
-6 -7 10 3 21 20 21 8 0 11 -6 8 -15z m-389 -13 c-3 -3 -11 0 -18 7 -9 10 -8
11 6 5 10 -3 15 -9 12 -12z m1716 -4 c14 -12 17 -19 8 -15 -9 3 -21 1 -26 -4
-5 -5 -17 -3 -29 6 -16 13 -17 16 -4 25 21 14 24 13 51 -12z m-1937 -4 c4 -11
1 -14 -11 -12 -9 2 -18 9 -21 16 -6 18 25 15 32 -4z m184 8 c7 -5 10 -16 6
-25 -7 -20 -47 -34 -52 -18 -2 6 -10 11 -17 11 -17 0 -28 17 -20 30 7 12 65
13 83 2z m808 -7 c-19 -15 -19 -15 3 -15 42 0 196 -34 203 -44 4 -6 8 -18 8
-26 -1 -12 -3 -12 -14 2 -7 10 -26 20 -42 23 -24 5 -37 -1 -71 -32 -62 -57
-82 -73 -91 -71 -4 0 -23 -6 -42 -14 -62 -27 -81 -31 -74 -15 5 13 -1 14 -37
5 -36 -10 -43 -9 -51 6 -8 13 -20 17 -51 14 -47 -3 -68 13 -23 18 31 3 49 14
23 14 -21 0 -22 29 -2 36 8 4 15 12 15 20 0 8 4 14 9 14 5 0 16 6 23 13 27 26
95 52 153 58 33 3 65 6 70 7 6 1 1 -5 -9 -13z m-2818 -9 c9 -6 10 -12 4 -18
-14 -14 -42 -3 -42 16 0 15 16 16 38 2z m62 -26 c0 -5 -5 -10 -11 -10 -5 0 -7
5 -4 10 3 6 8 10 11 10 2 0 4 -4 4 -10z m-55 -30 c3 -5 1 -10 -4 -10 -6 0 -11
5 -11 10 0 6 2 10 4 10 3 0 8 -4 11 -10z m116 -5 c0 -5 -9 -11 -21 -13 -15 -3
-18 1 -14 13 7 17 35 17 35 0z m1764 -21 c-15 -15 -35 -19 -35 -6 0 15 22 30
36 25 11 -4 11 -7 -1 -19z m-1515 -10 c0 -8 -4 -12 -10 -9 -5 3 -10 10 -10 16
0 5 5 9 10 9 6 0 10 -7 10 -16z m1423 7 c16 -2 6 -21 -12 -21 -11 0 -26 -7
-35 -15 -13 -13 -15 -13 -18 3 -4 20 19 41 41 37 9 -2 19 -4 24 -4z m-788 -20
c3 -5 1 -12 -5 -16 -5 -3 -10 1 -10 9 0 18 6 21 15 7z m-704 -23 c24 -12 53
-22 63 -23 10 -1 25 -10 32 -21 7 -10 18 -24 23 -30 15 -18 1 -55 -18 -50 -9
3 -30 7 -47 8 -23 1 -30 6 -26 17 4 11 -1 13 -21 9 -18 -3 -32 1 -43 13 -10
11 -28 19 -42 19 -20 0 -22 2 -12 15 6 8 17 13 23 12 7 -1 13 10 15 26 2 15 4
27 6 27 1 0 22 -10 47 -22z m-206 -8 c-4 -13 -2 -20 6 -20 7 0 9 -3 6 -6 -7
-8 -57 22 -57 34 0 4 12 9 26 10 21 2 24 -1 19 -18z m125 1 c0 -14 -18 -23
-30 -16 -6 4 -8 11 -5 16 8 12 35 12 35 0z m341 -4 c-1 -12 -15 -9 -19 4 -3 6
1 10 8 8 6 -3 11 -8 11 -12z m715 -32 c-4 -11 2 -15 25 -15 18 0 28 -4 24 -10
-11 -17 -54 -11 -65 9 -14 26 -13 31 6 31 10 0 14 -6 10 -15z m1978 -15 c-4
-17 -1 -36 5 -44 9 -11 8 -17 -4 -29 -19 -20 -19 -28 0 -21 8 4 15 1 15 -5 0
-22 -49 -11 -66 15 -15 22 -15 27 -3 35 8 5 19 9 26 9 7 0 10 13 9 35 -2 24 1
35 10 35 10 0 12 -9 8 -30z m-1094 0 c0 -5 0 -13 0 -17 0 -5 -16 -9 -35 -10
-40 -2 -45 7 -12 23 29 15 47 16 47 4z m440 0 c0 -5 -5 -10 -11 -10 -5 0 -7 5
-4 10 3 6 8 10 11 10 2 0 4 -4 4 -10z m-1820 -10 c0 -5 -4 -10 -10 -10 -5 0
-10 5 -10 10 0 6 5 10 10 10 6 0 10 -4 10 -10z m295 -2 c28 -12 33 -28 10 -28
-8 0 -15 5 -15 10 0 6 -7 10 -15 10 -8 0 -15 5 -15 10 0 13 3 13 35 -2z m905
8 c0 -3 -4 -8 -10 -11 -5 -3 -10 -1 -10 4 0 6 5 11 10 11 6 0 10 -2 10 -4z
m1210 0 c0 -3 -4 -8 -10 -11 -5 -3 -10 -1 -10 4 0 6 5 11 10 11 6 0 10 -2 10
-4z m-2547 -26 c-6 -21 -28 -27 -38 -10 -3 6 1 10 9 10 9 0 16 5 16 10 0 6 4
10 9 10 5 0 7 -9 4 -20z m1257 5 c-7 -8 -16 -15 -21 -15 -5 0 -9 7 -9 15 0 9
9 15 21 15 18 0 19 -2 9 -15z m163 0 c1 -5 -5 -11 -14 -13 -9 -2 -16 4 -16 13
0 17 27 17 30 0z m602 1 c-11 -8 -24 -12 -29 -8 -5 3 -1 9 10 13 31 12 39 10
19 -5z m339 -2 c9 -24 7 -34 -6 -34 -6 0 -21 -9 -32 -19 -18 -17 -24 -18 -39
-6 -16 11 -14 14 22 29 29 11 39 20 35 31 -4 8 -2 15 4 15 5 0 13 -7 16 -16z
m116 6 c0 -5 -4 -10 -9 -10 -6 0 -13 5 -16 10 -3 6 1 10 9 10 9 0 16 -4 16
-10z m-3457 -17 c3 -5 1 -17 -4 -28 -4 -11 -8 -14 -8 -7 -1 9 -6 10 -20 3 -15
-8 -20 -7 -25 6 -10 24 44 48 57 26z m1117 -3 c0 -5 -2 -10 -4 -10 -3 0 -8 5
-11 10 -3 6 -1 10 4 10 6 0 11 -4 11 -10z m2150 -11 c0 -5 -7 -9 -15 -9 -9 0
-12 6 -9 15 6 15 24 11 24 -6z m-2125 1 c3 -5 1 -10 -4 -10 -6 0 -11 5 -11 10
0 6 2 10 4 10 3 0 8 -4 11 -10z m2055 0 c0 -5 -4 -10 -10 -10 -5 0 -10 5 -10
10 0 6 5 10 10 10 6 0 10 -4 10 -10z m-2620 -16 c0 -8 -4 -12 -10 -9 -5 3 -10
10 -10 16 0 5 5 9 10 9 6 0 10 -7 10 -16z m960 12 c0 -3 -4 -8 -10 -11 -5 -3
-10 -1 -10 4 0 6 5 11 10 11 6 0 10 -2 10 -4z m1847 -2 c-3 -3 -12 -4 -19 -1
-8 3 -5 6 6 6 11 1 17 -2 13 -5z m-3347 -18 c0 -3 -4 -8 -10 -11 -5 -3 -10 -1
-10 4 0 6 5 11 10 11 6 0 10 -2 10 -4z m65 -5 c3 -5 1 -12 -5 -16 -5 -3 -10 1
-10 9 0 18 6 21 15 7z m805 -1 c0 -5 -4 -10 -10 -10 -5 0 -10 5 -10 10 0 6 5
10 10 10 6 0 10 -4 10 -10z m60 6 c0 -3 -4 -8 -10 -11 -5 -3 -10 -1 -10 4 0 6
5 11 10 11 6 0 10 -2 10 -4z m1310 -27 c0 -4 -11 -14 -25 -23 -18 -12 -24 -13
-23 -4 2 7 -5 12 -14 10 -12 -2 -16 2 -12 11 5 13 74 19 74 6z m-100 -9 c0 -5
-2 -10 -4 -10 -3 0 -8 5 -11 10 -3 6 -1 10 4 10 6 0 11 -4 11 -10z m-180 -10
c0 -5 -4 -10 -10 -10 -5 0 -10 5 -10 10 0 6 5 10 10 10 6 0 10 -4 10 -10z m34
-5 c3 -8 17 -15 31 -15 15 0 28 -7 32 -17 3 -10 17 -30 31 -45 24 -26 24 -28
8 -62 -9 -18 -16 -50 -16 -70 0 -20 -3 -36 -6 -36 -3 0 -17 14 -31 30 -13 17
-28 28 -33 25 -4 -2 -19 7 -34 22 -22 22 -25 32 -20 62 5 30 4 34 -7 24 -26
-26 -30 -12 -5 18 14 17 26 41 26 55 0 27 15 32 24 9z m1640 -1 c11 -28 6 -39
-9 -20 -8 11 -15 23 -15 28 0 14 18 9 24 -8z m-124 -39 c0 -8 -4 -15 -10 -15
-5 0 -10 7 -10 15 0 8 5 15 10 15 6 0 10 -7 10 -15z m-3580 -5 c0 -5 -5 -10
-11 -10 -5 0 -7 5 -4 10 3 6 8 10 11 10 2 0 4 -4 4 -10z m2470 0 c0 -5 -4 -10
-10 -10 -5 0 -10 5 -10 10 0 6 5 10 10 10 6 0 10 -4 10 -10z m-195 -20 c3 -5
-1 -10 -9 -10 -9 0 -16 5 -16 10 0 6 4 10 9 10 6 0 13 -4 16 -10z m77 -25 c0
-5 -5 -11 -11 -13 -6 -2 -11 4 -11 13 0 9 5 15 11 13 6 -2 11 -8 11 -13z m-39
-1 c3 -3 3 -13 0 -21 -5 -12 -7 -12 -14 -1 -15 23 -4 40 14 22z m1341 -9 c3
-8 1 -15 -4 -15 -6 0 -10 7 -10 15 0 8 2 15 4 15 2 0 6 -7 10 -15z m391 -5 c3
-5 1 -10 -4 -10 -6 0 -11 5 -11 10 0 6 2 10 4 10 3 0 8 -4 11 -10z m-635 -37
c8 -1 18 3 23 10 4 7 5 0 1 -16 -5 -22 -3 -27 12 -25 55 4 64 -1 57 -34 -5
-28 -4 -31 13 -24 14 5 16 4 7 -4 -8 -9 -8 -20 2 -44 14 -34 9 -76 -15 -129
-20 -42 -75 -71 -136 -72 -44 0 -58 5 -91 31 -21 17 -39 41 -41 53 -3 21 -4
22 -17 4 -12 -16 -13 -14 -12 22 1 22 -3 49 -8 59 -7 15 -5 18 7 13 12 -4 14
-1 11 14 -3 11 1 21 11 25 9 3 13 10 10 15 -3 5 0 9 7 9 10 0 10 3 1 12 -8 8
-6 16 10 29 11 10 29 21 39 24 11 4 17 11 14 16 -4 5 1 12 10 16 10 3 20 0 25
-6 5 -9 9 -8 14 4 3 10 11 13 18 8 7 -4 20 -8 28 -10z m93 0 c-4 -11 -3 -14 5
-9 7 4 12 3 12 -2 0 -6 -11 -9 -24 -8 -20 1 -22 4 -15 19 12 22 30 23 22 0z
m-1298 -51 c-23 -5 -37 11 -29 33 7 17 9 16 27 -6 18 -22 18 -24 2 -27z m-355
2 c0 -2 -12 -4 -27 -4 -21 0 -24 3 -14 9 13 8 41 5 41 -5z m1870 -5 c0 -5 -7
-9 -15 -9 -15 0 -20 12 -9 23 8 8 24 -1 24 -14z m-2006 -40 c-3 -5 -10 -7 -15
-3 -5 3 -7 10 -3 15 3 5 10 7 15 3 5 -3 7 -10 3 -15z m376 11 c0 -5 -4 -10
-10 -10 -5 0 -10 5 -10 10 0 6 5 10 10 10 6 0 10 -4 10 -10z m-2246 -30 c12
-12 -1 -40 -19 -40 -8 0 -15 5 -15 11 0 6 -9 8 -20 4 -12 -4 -20 -2 -20 5 0 7
9 14 21 17 16 5 18 8 7 15 -9 6 -5 7 12 3 14 -4 29 -11 34 -15z m3264 -7 c-4
-22 -22 -20 -26 1 -2 10 3 16 13 16 10 0 15 -7 13 -17z m-2468 -53 c0 -5 -2
-10 -4 -10 -3 0 -8 5 -11 10 -3 6 -1 10 4 10 6 0 11 -4 11 -10z m-135 -10 c3
-5 -1 -10 -10 -10 -9 0 -13 5 -10 10 3 6 8 10 10 10 2 0 7 -4 10 -10z m1305 0
c0 -5 -4 -10 -10 -10 -5 0 -10 5 -10 10 0 6 5 10 10 10 6 0 10 -4 10 -10z m80
1 c0 -11 -25 -21 -51 -21 -19 0 -25 11 -12 23 10 10 63 8 63 -2z m60 5 c0 -3
-4 -8 -10 -11 -5 -3 -10 -1 -10 4 0 6 5 11 10 11 6 0 10 -2 10 -4z m900 -26
c8 -5 11 -12 7 -16 -4 -4 -15 0 -24 9 -18 18 -8 23 17 7z m-1270 -30 c0 -5 -5
-10 -11 -10 -5 0 -7 5 -4 10 3 6 8 10 11 10 2 0 4 -4 4 -10z m-70 -4 c0 -3 -4
-8 -10 -11 -5 -3 -10 -1 -10 4 0 6 5 11 10 11 6 0 10 -2 10 -4z m2420 -16 c0
-5 -5 -10 -11 -10 -5 0 -7 5 -4 10 3 6 8 10 11 10 2 0 4 -4 4 -10z m-3429 -73
c-13 -13 -26 -3 -16 12 3 6 11 8 17 5 6 -4 6 -10 -1 -17z m1223 -48 c-3 -5
-10 -7 -15 -3 -5 3 -7 10 -3 15 3 5 10 7 15 3 5 -3 7 -10 3 -15z m1596 17 c0
-3 -4 -8 -10 -11 -5 -3 -10 -1 -10 4 0 6 5 11 10 11 6 0 10 -2 10 -4z m731
-87 c-18 -17 -19 -17 -24 6 -2 14 3 33 12 44 16 20 16 20 23 -6 5 -20 2 -32
-11 -44z m-2491 21 c0 -5 -4 -10 -10 -10 -5 0 -10 5 -10 10 0 6 5 10 10 10 6
0 10 -4 10 -10z m590 1 c0 -13 -27 -21 -45 -15 -8 4 -12 10 -9 15 7 12 54 12
54 0z m-2160 -16 c0 -8 -4 -15 -9 -15 -13 0 -22 16 -14 24 11 11 23 6 23 -9z
m3850 11 c0 -3 -4 -8 -10 -11 -5 -3 -10 -1 -10 4 0 6 5 11 10 11 6 0 10 -2 10
-4z m-230 -10 c0 -3 -4 -8 -10 -11 -5 -3 -10 -1 -10 4 0 6 5 11 10 11 6 0 10
-2 10 -4z m-460 -20 c0 -3 -4 -8 -10 -11 -5 -3 -10 -1 -10 4 0 6 5 11 10 11 6
0 10 -2 10 -4z m-950 -112 c0 -8 -4 -12 -10 -9 -5 3 -10 10 -10 16 0 5 5 9 10
9 6 0 10 -7 10 -16z"/>
<path d="M1855 1840 c3 -5 8 -10 11 -10 2 0 4 5 4 10 0 6 -5 10 -11 10 -5 0
-7 -4 -4 -10z"/>
<path d="M1990 1746 c0 -2 7 -6 15 -10 8 -3 15 -1 15 4 0 6 -7 10 -15 10 -8 0
-15 -2 -15 -4z"/>
<path d="M2865 1740 c-3 -4 4 -10 15 -13 11 -3 22 -2 25 3 3 4 -4 10 -15 13
-11 3 -22 2 -25 -3z"/>
<path d="M1915 1719 c-11 -17 0 -20 21 -4 17 13 17 14 2 15 -9 0 -20 -5 -23
-11z"/>
<path d="M1920 1630 c0 -5 5 -10 11 -10 5 0 7 5 4 10 -3 6 -8 10 -11 10 -2 0
-4 -4 -4 -10z"/>
<path d="M386 1117 c3 -10 9 -15 12 -12 3 3 0 11 -7 18 -10 9 -11 8 -5 -6z"/>
</g>
</svg>
