<?xml version="1.0" standalone="no"?>
<!DOCTYPE svg PUBLIC "-//W3C//DTD SVG 20010904//EN"
 "http://www.w3.org/TR/2001/REC-SVG-20010904/DTD/svg10.dtd">
<svg version="1.0" xmlns="http://www.w3.org/2000/svg"
 width="474.000000pt" height="296.000000pt" viewBox="0 0 474.000000 296.000000"
 preserveAspectRatio="xMidYMid meet">

<g transform="translate(0.000000,296.000000) scale(0.100000,-0.100000)"
fill="#000000" stroke="none">
<path d="M0 1480 l0 -1480 2370 0 2370 0 0 1480 0 1480 -2370 0 -2370 0 0
-1480z m2840 1248 c0 -13 -32 -6 -37 9 -3 7 3 9 16 6 12 -3 21 -10 21 -15z
m185 -8 c3 -5 2 -10 -4 -10 -5 0 -13 5 -16 10 -3 6 -2 10 4 10 5 0 13 -4 16
-10z m-235 -20 c0 -5 -4 -10 -10 -10 -5 0 -10 -7 -10 -15 0 -22 -17 -18 -23 4
-3 14 -1 18 9 14 8 -3 14 0 14 6 0 6 5 11 10 11 6 0 10 -4 10 -10z m114 -17
c3 -10 9 -24 12 -30 3 -7 0 -13 -8 -13 -7 0 -19 14 -25 30 -9 24 -9 30 2 30 7
0 15 -8 19 -17z m65 -10 c-1 -18 -3 -22 -6 -10 -4 14 -8 15 -18 7 -9 -8 -14
-7 -18 4 -4 10 -1 13 7 10 8 -3 17 -1 21 5 10 18 15 13 14 -16z m36 -33 c3 -5
-1 -10 -9 -10 -9 0 -16 5 -16 10 0 6 4 10 9 10 6 0 13 -4 16 -10z m-157 -9 c6
-1 22 -11 34 -23 13 -13 35 -22 57 -22 29 -1 44 -9 78 -47 26 -28 45 -59 49
-80 11 -70 15 -79 30 -79 25 0 88 -37 122 -71 69 -70 83 -221 32 -343 -24 -57
-48 -91 -117 -164 -50 -54 -94 -92 -105 -92 -10 0 -30 7 -43 16 -20 13 -25 14
-25 3 0 -11 -3 -11 -11 1 -13 18 -9 4 29 -90 24 -58 26 -78 26 -195 1 -116 -2
-136 -25 -189 -13 -33 -31 -61 -39 -64 -9 -2 -11 0 -4 5 15 12 44 94 44 125 0
15 4 29 9 32 4 3 7 16 6 28 -1 13 -3 33 -4 46 0 12 -8 22 -16 22 -10 0 -12 6
-8 18 6 14 4 15 -9 4 -13 -10 -15 -9 -10 13 2 15 0 25 -7 25 -7 0 -10 4 -7 9
10 15 -6 42 -21 37 -9 -4 -11 -2 -7 6 4 6 0 16 -8 22 -8 6 -17 19 -21 29 -9
24 -48 22 -76 -4 l-23 -22 7 22 c5 15 2 21 -9 21 -9 0 -17 -8 -17 -17 -1 -17
-2 -17 -6 0 -2 9 -10 17 -18 17 -7 0 -20 10 -28 23 -11 15 -16 17 -16 7 -1 -8
-10 -21 -20 -27 -17 -11 -24 -7 -55 24 -34 36 -41 54 -14 37 7 -5 27 -9 43 -9
29 0 30 2 26 38 -2 28 -7 37 -22 37 -10 0 -19 5 -19 11 0 6 7 9 15 5 8 -3 15
-2 15 3 0 19 -15 19 -41 0 -16 -11 -29 -16 -29 -10 0 6 -4 11 -9 11 -13 0 -8
-25 8 -44 7 -9 9 -16 3 -16 -5 0 -15 7 -22 15 -15 18 -37 20 -43 3 -4 -10 -7
-10 -18 0 -11 10 -10 12 5 12 12 0 16 5 12 15 -3 9 1 18 9 21 9 4 15 19 15 40
0 28 -4 34 -21 34 -15 0 -19 -5 -15 -15 3 -8 4 -15 2 -15 -3 0 -11 -3 -20 -6
-11 -4 -16 0 -16 14 0 12 -6 19 -16 18 -9 0 -19 5 -21 12 -3 8 5 12 24 12 24
1 25 2 10 11 -9 6 -26 7 -37 4 -12 -4 -20 -2 -20 5 0 6 4 9 9 5 5 -3 12 -1 16
4 7 12 -71 35 -85 26 -6 -3 -10 -1 -10 4 0 17 -47 13 -54 -4 -3 -8 0 -15 6
-15 9 0 9 -3 1 -11 -7 -7 -17 -8 -28 -1 -16 8 -15 12 10 34 l27 26 -28 -5 -29
-4 25 15 c38 22 161 36 228 26 85 -13 180 -45 245 -85 l57 -34 0 82 c0 73 4
91 33 152 19 39 57 101 85 138 29 37 52 73 52 79 0 5 -13 22 -29 37 -16 15
-34 47 -41 72 -21 78 -28 89 -54 89 -17 0 -35 12 -53 34 -22 28 -30 33 -45 25
-25 -13 -58 -2 -58 20 0 27 8 30 74 26 33 -2 67 -4 74 -4z m292 -21 c0 9 3 11
10 4 6 -6 8 -19 4 -29 -7 -17 -8 -17 -21 1 -7 10 -13 23 -13 28 0 6 5 4 10 -4
8 -13 10 -13 10 0z m41 -81 c8 -15 8 -24 0 -32 -13 -13 -26 -2 -36 31 -9 29
20 30 36 1z m-1815 -5 c68 -20 94 -46 94 -95 0 -48 11 -54 44 -28 15 12 47 27
72 35 54 16 89 5 142 -46 17 -17 54 -38 82 -46 34 -10 57 -25 75 -48 30 -39
31 -52 7 -65 -14 -7 -29 -4 -61 15 -24 13 -45 24 -47 24 -2 0 -2 -16 1 -35 5
-39 0 -41 -41 -21 -29 16 -44 13 -44 -8 0 -7 -16 -20 -35 -29 -30 -14 -37 -15
-62 -2 -17 9 -29 11 -31 5 -5 -15 -28 -12 -42 5 -8 10 -21 13 -37 8 -19 -4
-24 -2 -21 7 7 22 37 37 46 23 4 -6 28 -12 52 -13 56 -1 119 13 103 23 -15 9
-63 -2 -63 -15 0 -5 -4 -6 -10 -3 -18 11 -10 25 14 25 14 0 28 5 32 11 4 7 21
9 40 6 35 -6 94 16 75 27 -5 4 -61 8 -123 10 -63 1 -123 8 -135 15 -30 15
-101 3 -125 -21 -57 -57 -120 -82 -144 -58 -7 7 -19 7 -35 2 -46 -17 -92 24
-97 87 -4 57 19 92 81 120 23 10 61 37 84 60 23 22 45 41 49 41 3 0 30 -7 60
-16z m1754 6 c0 -5 -4 -10 -10 -10 -5 0 -10 5 -10 10 0 6 5 10 10 10 6 0 10
-4 10 -10z m-2045 -249 c3 -6 -3 -15 -14 -21 -21 -11 -37 2 -26 20 8 13 32 13
40 1z m2915 -188 c0 -14 -19 -38 -25 -32 -8 8 5 39 16 39 5 0 9 -3 9 -7z
m-2614 -19 c-3 -9 -6 -18 -6 -20 0 -2 -4 -4 -9 -4 -5 0 -7 9 -4 20 3 11 10 20
15 20 6 0 7 -7 4 -16z m44 6 c0 -5 -4 -10 -10 -10 -5 0 -10 5 -10 10 0 6 5 10
10 10 6 0 10 -4 10 -10z m2320 -56 c0 -9 -17 -32 -37 -51 -43 -39 -54 -28 -29
31 12 28 21 36 40 36 17 0 26 -6 26 -16z m191 -41 c-5 -10 -12 -27 -16 -37 -3
-10 -8 -16 -11 -14 -3 3 2 23 11 43 8 21 18 36 21 33 3 -4 1 -14 -5 -25z
m-2291 -39 c0 -8 -4 -12 -10 -9 -5 3 -10 10 -10 16 0 5 5 9 10 9 6 0 10 -7 10
-16z m605 6 c-3 -5 -11 -10 -16 -10 -6 0 -7 5 -4 10 3 6 11 10 16 10 6 0 7 -4
4 -10z m1610 -60 c3 -5 4 -10 1 -10 -2 0 -12 -3 -20 -6 -12 -5 -15 -2 -10 10
7 18 20 21 29 6z m-47 -32 c-6 -18 -28 -21 -28 -4 0 9 7 16 16 16 9 0 14 -5
12 -12z m-1422 -13 c-8 -8 -23 -14 -33 -14 -17 1 -17 2 0 6 9 2 15 9 12 14 -4
5 3 9 15 9 19 0 20 -2 6 -15z m-1234 -14 c54 -27 64 -114 16 -140 -25 -15 -29
-14 -65 15 -42 34 -54 72 -28 86 9 5 20 21 26 34 5 14 12 24 16 22 5 -2 20
-10 35 -17z m1328 -31 c0 -5 -4 -10 -10 -10 -5 0 -10 5 -10 10 0 6 5 10 10 10
6 0 10 -4 10 -10z m1360 -10 c0 -11 -2 -20 -4 -20 -2 0 -6 9 -9 20 -3 11 -1
20 4 20 5 0 9 -9 9 -20z m-2479 -26 c17 -8 28 -21 26 -27 -5 -16 -89 -10 -125
9 l-26 13 25 10 c36 14 66 13 100 -5z m2188 -18 c14 -17 8 -79 -9 -84 -9 -3
-11 1 -7 12 5 12 0 19 -17 26 -24 9 -40 35 -30 51 8 14 50 11 63 -5z m329 -4
c2 -7 -3 -12 -12 -12 -9 0 -16 7 -16 16 0 17 22 14 28 -4z m-1248 -2 c0 -5 -2
-10 -4 -10 -3 0 -8 5 -11 10 -3 6 -1 10 4 10 6 0 11 -4 11 -10z m-92 -58 c2
-7 -2 -10 -12 -6 -9 3 -16 11 -16 16 0 13 23 5 28 -10z m-1233 -8 c20 -16 20
-16 -3 -9 -21 6 -22 4 -17 -26 5 -26 3 -30 -7 -21 -11 8 -16 49 -9 70 2 6 18
0 36 -14z m1193 -9 c-3 -3 -9 2 -12 12 -6 14 -5 15 5 6 7 -7 10 -15 7 -18z
m1452 -5 c0 -5 -7 -10 -15 -10 -8 0 -15 5 -15 10 0 6 7 10 15 10 8 0 15 -4 15
-10z m-1097 -63 c4 3 7 1 7 -6 0 -17 -32 -10 -38 9 -4 12 -3 13 10 3 8 -7 18
-10 21 -6z m-1656 -18 c6 -6 26 -14 44 -18 18 -4 34 -12 37 -20 3 -10 -2 -11
-19 -5 -13 4 -33 7 -44 6 -20 -1 -55 24 -55 40 0 12 24 10 37 -3z m142 -3 c9
-11 8 -15 -5 -20 -20 -8 -39 7 -30 23 10 15 21 14 35 -3z m2341 -16 c0 -5 -4
-10 -10 -10 -5 0 -10 5 -10 10 0 6 5 10 10 10 6 0 10 -4 10 -10z m-790 -20 c0
-5 -4 -10 -10 -10 -5 0 -10 5 -10 10 0 6 5 10 10 10 6 0 10 -4 10 -10z m-1636
-21 c-3 -5 0 -9 7 -9 8 0 8 -4 1 -13 -8 -10 -6 -16 9 -26 36 -22 13 -23 -30
-1 -23 11 -41 16 -41 10 0 -16 -17 -12 -24 5 -3 9 -1 15 7 14 29 -4 39 1 29
14 -8 9 -3 12 19 13 15 1 26 -3 23 -7z m2486 -30 c0 -5 -7 -9 -15 -9 -15 0
-20 12 -9 23 8 8 24 -1 24 -14z m-820 -4 c-7 -8 -17 -15 -22 -15 -6 0 -5 7 2
15 7 8 17 15 22 15 6 0 5 -7 -2 -15z m-1704 -60 c1 -8 -1 -15 -6 -15 -10 0
-20 26 -13 34 8 8 16 -1 19 -19z m173 -9 l25 -14 -32 -16 c-54 -28 -96 -17
-85 22 4 17 13 22 37 22 17 -1 42 -7 55 -14z m-119 -26 c12 -7 8 -10 -15 -10
-16 0 -37 5 -45 10 -12 7 -8 10 15 10 17 0 37 -5 45 -10z m485 4 c22 -9 36
-48 29 -83 -9 -43 -78 -78 -125 -65 -51 14 -50 47 3 107 40 46 59 54 93 41z
m1415 -1054 c0 -5 -4 -10 -10 -10 -5 0 -10 5 -10 10 0 6 5 10 10 10 6 0 10 -4
10 -10z m695 -10 c3 -5 -1 -10 -10 -10 -9 0 -13 5 -10 10 3 6 8 10 10 10 2 0
7 -4 10 -10z"/>
<path d="M2540 1889 c0 -5 5 -7 10 -4 6 3 10 8 10 11 0 2 -4 4 -10 4 -5 0 -10
-5 -10 -11z"/>
<path d="M2640 1832 c0 -4 9 -13 21 -20 19 -12 19 -11 9 8 -10 19 -30 28 -30
12z"/>
<path d="M2685 1710 c-3 -5 -1 -10 4 -10 6 0 11 5 11 10 0 6 -2 10 -4 10 -3 0
-8 -4 -11 -10z"/>
<path d="M2723 1713 c-20 -8 -15 -29 7 -30 14 -1 20 4 20 18 0 19 -5 22 -27
12z"/>
</g>
</svg>
